<?xml version="1.0" encoding="UTF-8"?>
<svg id="base" xmlns="http://www.w3.org/2000/svg" xmlns:xlink="http://www.w3.org/1999/xlink" viewBox="0 0 1920 608.23">
  <defs>
    <style>
      .cls-1 {
        fill: none;
      }

      .cls-2 {
        fill: #f1f1f1;
      }

      .cls-3 {
        fill: #4c71b2;
      }

      .cls-4 {
        fill: #937218;
      }

      .cls-5 {
        clip-path: url(#clippath);
      }
    </style>
    <clipPath id="clippath">
      <rect class="cls-1" x="743.65" y="149.52" width="580.98" height="452.71"/>
    </clipPath>
  </defs>
  <path id="background_image_pc" data-name="background image pc" class="cls-2" d="M1903.44,225.92L1181.82,43.25c-16.11-6.84-33.09,7.5-33.09,28.04v231.19h-242.33l.6-272.72c0-20.53-16.98-34.88-33.09-28.04h-.21L16.56,210.04c-9.93,4.2-16.56,15.46-16.56,28.04v370.16h1920V253.95c0-12.58-6.63-23.83-16.56-28.04h0Z"/>
  <g id="HOME_title" data-name="HOME title">
    <g class="cls-5">
      <g id="_.title" data-name=" .title">
        <g>
          <g>
            <path class="cls-3" d="M912.27,417.64c-3.16-1.32-7.3-2.72-12.4-4.22-5.54-1.58-9.62-3.16-12.26-4.74s-3.96-3.86-3.96-6.86c0-3.16,1.36-5.64,4.08-7.46,2.72-1.8,6.34-2.7,10.82-2.7,4.84,0,8.68,1.02,11.54,3.04,2.86,2.02,4.28,4.52,4.28,7.52v.4c0,.88.44,1.32,1.32,1.32h6.2c.88,0,1.32-.44,1.32-1.32v-.4c0-3.42-1.02-6.52-3.04-9.3-2.02-2.76-4.9-4.94-8.64-6.52s-8.02-2.38-12.86-2.38c-7.22,0-13.02,1.68-17.42,5.02-4.4,3.34-6.6,7.82-6.6,13.46,0,3.88,1.08,7.06,3.24,9.56s4.82,4.46,7.98,5.86,7.2,2.82,12.14,4.22c4.14,1.24,7.18,2.24,9.16,3.04,1.98.8,3.7,1.9,5.14,3.3,1.46,1.4,2.18,3.22,2.18,5.4,0,3.16-1.4,5.78-4.22,7.84-2.82,2.06-6.5,3.1-11.08,3.1s-8.38-1.08-11.4-3.24c-3.04-2.16-4.56-4.68-4.56-7.58v-1.06c0-.88-.44-1.32-1.32-1.32h-6.34c-.88,0-1.32.44-1.32,1.32v1.58c0,3.26,1.04,6.2,3.1,8.84,2.06,2.64,5.02,4.74,8.84,6.32,3.82,1.58,8.2,2.38,13.12,2.38,7.38,0,13.32-1.72,17.8-5.14s6.72-8,6.72-13.72c0-4.04-1.14-7.32-3.42-9.82s-5.02-4.42-8.18-5.74h.04Z"/>
            <path class="cls-3" d="M969.31,383.6c-6.86,0-12.58,1.54-17.14,4.62-4.58,3.08-7.22,7.08-7.92,12-.18.52.22.88,1.18,1.06l7.12.92c.8.1,1.32-.3,1.58-1.18.62-2.9,2.24-5.16,4.88-6.8,2.64-1.62,6.06-2.44,10.28-2.44,5.28,0,9.16,1.3,11.68,3.9,2.5,2.6,3.76,6.14,3.76,10.62v5.02c0,.36-.18.52-.52.52h-15.3c-8.54,0-15.2,1.92-19.98,5.74-4.8,3.82-7.18,9.04-7.18,15.62s2.12,11.34,6.34,14.5c4.22,3.16,9.46,4.74,15.7,4.74,4.3,0,8.22-.68,11.74-2.04,3.52-1.36,6.38-3.36,8.58-6,.18-.18.34-.22.46-.14.14.1.2.22.2.4v5.4c0,.88.44,1.32,1.32,1.32h6.72c.88,0,1.32-.44,1.32-1.32v-44.32c0-6.68-2.16-12.04-6.46-16.1-4.3-4.04-10.42-6.06-18.34-6.06l-.02.02h0ZM984.75,430.04c0,4.4-1.9,7.9-5.68,10.48-3.78,2.6-8.26,3.9-13.46,3.9-4.3,0-7.8-.98-10.48-2.96-2.68-1.98-4.02-4.9-4.02-8.78,0-4.22,1.76-7.52,5.28-9.9s8.18-3.56,13.98-3.56h13.84c.36,0,.52.18.52.52v10.28l.02.02h0Z"/>
            <path class="cls-3" d="M1019.05,359.08h6.72c.72,0,1.32.6,1.32,1.32v89.7c0,.72-.6,1.32-1.32,1.32h-6.72c-.72,0-1.32-.6-1.32-1.32v-89.68c0-.72.6-1.32,1.32-1.32v-.02h0Z"/>
            <path class="cls-3" d="M1093.23,388.48c-4.52-3.26-9.92-4.88-16.16-4.88s-12.04,1.62-16.62,4.88c-4.58,3.26-7.7,7.7-9.36,13.32-1.24,3.96-1.84,9.32-1.84,16.1s.62,12.18,1.84,16.22c1.76,5.72,4.92,10.2,9.5,13.46,4.58,3.26,10.02,4.88,16.36,4.88s11.76-1.62,16.28-4.88,7.62-7.74,9.3-13.46c1.22-3.7,1.84-9.1,1.84-16.22s-.62-12.44-1.84-16.22c-1.68-5.54-4.78-9.94-9.3-13.18v-.02h0ZM1093.83,431.36c-1.06,3.96-3.08,7.1-6.06,9.44-3,2.34-6.6,3.5-10.82,3.5s-8.12-1.16-11.14-3.5c-3.04-2.32-5.04-5.48-6-9.44-.7-3.08-1.06-7.52-1.06-13.32s.36-10.24,1.06-13.32c1.06-3.96,3.08-7.1,6.06-9.44,2.98-2.32,6.64-3.5,10.94-3.5s7.98,1.16,11.02,3.5,5.08,5.48,6.14,9.44c.7,3.08,1.06,7.52,1.06,13.32s-.4,10.16-1.18,13.32h-.02Z"/>
            <path class="cls-3" d="M1170.97,389.94c-4.18-4.14-9.78-6.2-16.82-6.2-8,0-13.94,2.72-17.8,8.18-.08.18-.2.22-.34.14s-.2-.22-.2-.4v-5.68c0-.88-.44-1.32-1.32-1.32h-6.72c-.88,0-1.32.44-1.32,1.32v64.1c0,.88.44,1.32,1.32,1.32h6.72c.88,0,1.32-.44,1.32-1.32v-41.94c0-4.84,1.5-8.74,4.48-11.74,2.98-2.98,6.9-4.48,11.74-4.48s8.46,1.54,11.4,4.62,4.42,7.04,4.42,11.88v41.68c0,.88.44,1.32,1.32,1.32h6.72c.88,0,1.32-.44,1.32-1.32v-43.52c0-6.94-2.08-12.48-6.26-16.62l.02-.02h0Z"/>
          </g>
          <g>
            <path class="cls-3" d="M807.91,524.5c-4.6-3.9-10.62-5.86-18.12-5.86s-13.5,2.7-18.36,8.08c-.64.42-.94.26-.94-.48l4.28-34.34c.1-.52,0-.98-.32-1.34s-.74-.56-1.26-.56h-14.24c-.52,0-.98.18-1.34.56-.38.36-.6.82-.72,1.34l-13.2,107c-.1.52,0,.98.32,1.34.32.38.74.56,1.26.56h14.24c.52,0,.98-.18,1.34-.56s.6-.82.72-1.34l.64-4.9c0-.32.1-.52.32-.64.2-.1.42,0,.64.32,1.8,2.64,4.08,4.7,6.88,6.18s6.04,2.22,9.74,2.22c7.28,0,13.64-1.96,19.08-5.86,5.44-3.9,9.74-9.34,12.9-16.3,2.64-5.7,4.44-12.3,5.38-19.78.42-4.44.64-7.54.64-9.34,0-3.48-.32-6.8-.94-9.98-1.38-6.96-4.34-12.4-8.94-16.3v-.02h0ZM798.79,560.44c-.96,7.8-2.9,13.88-5.86,18.2-3.48,5.06-8.18,7.6-14.08,7.6-5.28,0-8.92-2.54-10.92-7.6-1.26-2.74-1.9-6.18-1.9-10.28,0-1.38.22-4.06.64-8.08.96-8.02,2.96-14.3,6.02-18.84,3.38-4.64,7.54-6.96,12.5-6.96,5.38,0,9.18,2.22,11.4,6.64,1.8,3.28,2.68,7.5,2.68,12.66,0,2-.16,4.22-.48,6.64v.02h0Z"/>
            <path class="cls-3" d="M889.17,521.02c-2.32-1.38-5.12-2.06-8.38-2.06-7.82,0-14.2,3.42-19.16,10.28-.22.32-.42.46-.64.4s-.26-.3-.16-.72l.96-7.12c0-1.26-.58-1.9-1.74-1.9h-14.08c-.52,0-.98.18-1.34.56-.36.36-.6.82-.72,1.34l-9.52,77.08c-.1.52,0,.98.32,1.34.32.38.74.56,1.26.56h14.24c.52,0,.98-.18,1.34-.56s.6-.82.72-1.34l5.4-44.8c.64-4.64,2.56-8.42,5.78-11.32,3.22-2.9,7-4.46,11.32-4.66.74-.1,1.74-.16,3-.16,2,0,3.8.26,5.38.8,1.16.52,1.9.16,2.22-1.1l4.44-14.24c.22-1.16,0-1.96-.64-2.38h0Z"/>
            <path class="cls-3" d="M957.17,524.82c-5.18-4.12-11.66-6.18-19.46-6.18-8.24,0-15.48,2.06-21.76,6.18s-11.12,9.86-14.48,17.26c-2.22,5.38-3.76,11.4-4.6,18.04-.32,2.64-.48,5.38-.48,8.24,0,3.38.26,6.64.78,9.82,1.48,7.5,4.84,13.34,10.12,17.56,5.28,4.22,11.92,6.34,19.94,6.34s15-2.14,21.28-6.42c6.28-4.28,11.06-10.16,14.32-17.64,2.42-5.6,4.02-11.6,4.76-18.04.32-2.74.48-5.38.48-7.92,0-3.8-.32-7.18-.94-10.12-1.48-7.28-4.8-12.98-9.96-17.1v-.02h0ZM949.55,560.28c-.54,5.18-1.58,9.6-3.16,13.3-1.68,4.02-4.04,7.12-7.04,9.34-3,2.22-6.36,3.32-10.06,3.32-4.02,0-7.28-1.1-9.82-3.32-2.54-2.22-4.16-5.32-4.9-9.34-.22-2.1-.32-3.96-.32-5.54,0-2.54.16-5.12.48-7.76.64-4.86,1.7-9.28,3.18-13.3,1.8-4,4.2-7.1,7.2-9.26,3-2.16,6.4-3.24,10.2-3.24s7.12,1.08,9.66,3.24,4.12,5.24,4.74,9.26c.32,1.38.48,3.06.48,5.06,0,1.48-.22,4.22-.64,8.24h0Z"/>
            <path class="cls-3" d="M1058.63,519.92h-14.08c-.52,0-1,.18-1.42.56-.42.36-.68.82-.8,1.34l-.8,6.64c0,.42-.1.66-.32.72s-.42-.08-.64-.4c-3.16-6.76-9.08-10.14-17.72-10.14-7.08,0-13.36,1.98-18.84,5.94-5.5,3.96-9.6,9.1-12.36,15.44-2.12,4.96-3.7,11.72-4.76,20.26-.74,5.48-1.1,9.7-1.12,12.66,0,2.12.16,4.12.48,6.02.94,7.08,3.72,12.7,8.3,16.86s10.32,6.26,17.18,6.26c9.08,0,16.14-3.64,21.22-10.92.22-.32.42-.44.64-.4.22.06.26.3.16.72l-.8,7.44c-.1.52,0,.98.32,1.34.32.38.74.56,1.26.56h14.08c.52,0,.98-.18,1.34-.56s.6-.82.72-1.34l9.52-77.08c.1-.52,0-.98-.32-1.34s-.74-.56-1.26-.56l.02-.02h0ZM1037.71,560.44c-.52,4.12-1.04,7.14-1.5,9.1-.48,1.96-1.08,3.72-1.82,5.3-1.38,3.38-3.4,6.12-6.1,8.24-2.7,2.12-5.88,3.16-9.58,3.16s-6.92-1.06-9.34-3.16c-2.42-2.1-3.86-4.86-4.28-8.24-.32-1.58-.48-3.22-.48-4.9,0-2.74.26-5.96.8-9.66.52-4.12,1.04-7.14,1.5-9.1.48-1.96,1.08-3.72,1.82-5.3,1.26-3.38,3.34-6.12,6.26-8.24,2.9-2.1,6.26-3.16,10.06-3.16,3.58,0,6.52,1.06,8.78,3.16,2.26,2.12,3.56,4.74,3.88,7.92.52,1.8.78,3.58.78,5.38,0,1.38-.26,4.54-.8,9.5h.02,0Z"/>
            <path class="cls-3" d="M1152.63,490h-14.08c-.52,0-.98.18-1.34.56-.36.36-.6.82-.72,1.34l-4.28,34.34c0,.32-.1.5-.32.56s-.42-.02-.64-.24c-3.8-5.28-9.24-7.92-16.3-7.92-7.6,0-14.16,1.96-19.7,5.86-5.54,3.9-9.84,9.34-12.9,16.3-2.42,5.48-4.06,11.92-4.92,19.32-.42,2.84-.64,5.96-.64,9.34,0,3.58.32,7.08.94,10.44,1.36,6.96,4.32,12.4,8.86,16.3,4.54,3.9,10.44,5.86,17.72,5.86s13.5-2.74,18.68-8.24c.22-.32.42-.42.64-.32s.26.32.16.64l-.48,4.74c-.1.52,0,.98.32,1.34.32.38.74.56,1.26.56h14.08c.52,0,.98-.18,1.34-.56s.6-.82.72-1.34l13.16-107c.1-.52,0-.98-.32-1.34s-.74-.56-1.26-.56l.02.02ZM1127.91,560.28c-.96,7.82-2.9,13.92-5.86,18.36-3.48,5.06-7.82,7.6-12.98,7.6-5.8,0-9.86-2.54-12.18-7.6-1.26-3.06-1.9-6.86-1.9-11.4,0-2.22.16-4.48.48-6.8.96-8.12,3.28-14.56,6.96-19.32,3.48-4.44,7.86-6.64,13.14-6.64,4.96,0,8.54,2.32,10.76,6.96,1.38,2.84,2.06,6.64,2.06,11.4,0,2.22-.16,4.7-.48,7.44h0Z"/>
            <path class="cls-3" d="M1206.63,518.66c-8.02,0-15.12,2.14-21.28,6.42-6.18,4.28-10.74,10.1-13.7,17.48-1.9,4.32-3.22,10.08-3.96,17.26-.42,2.96-.64,6.02-.64,9.18,0,4.64.52,8.7,1.58,12.18,1.8,6.64,5.22,11.82,10.28,15.52s11.6,5.54,19.62,5.54c6.44,0,12.44-1.26,18.04-3.8,5.6-2.54,10.24-6.12,13.94-10.76.42-.64.64-1.06.64-1.26,0-.32-.26-.74-.8-1.26l-8.38-8.08c-.32-.32-.68-.48-1.1-.48-.52,0-1.06.32-1.58.94-4.86,5.92-10.76,8.86-17.74,8.86-9.4-.1-14.94-3.96-16.62-11.56-.32-1.16-.48-2.54-.48-4.12,0-1.26.06-2.26.16-3,0-.52.26-.8.8-.8h47.96c1.26,0,1.96-.64,2.06-1.9.84-5.6,1.26-10.34,1.26-14.24,0-21.42-10.02-32.14-30.06-32.14v.02h0ZM1218.97,552.52c0,.52-.26.8-.8.8h-31.18c-.52,0-.68-.26-.48-.8.52-2.74,1.22-5.06,2.06-6.96,1.48-3.48,3.56-6.2,6.26-8.16,2.68-1.96,5.98-2.92,9.9-2.92,4.12,0,7.38,1.06,9.82,3.16,2.42,2.12,3.9,5.06,4.42,8.86.1.42.16,1.32.16,2.7s-.06,2.48-.16,3.32h0Z"/>
            <path class="cls-3" d="M1318.15,524.98c-4.32-4.22-10.24-6.34-17.72-6.34-8.54,0-15.2,2.84-19.94,8.54-.22.32-.42.42-.64.32s-.26-.32-.16-.64l.64-5.06c0-1.26-.58-1.9-1.74-1.9h-14.08c-.52,0-.98.18-1.34.56-.36.36-.6.82-.72,1.34l-9.52,77.08c-.1.52,0,.98.32,1.34.32.38.74.56,1.26.56h14.24c.52,0,.98-.18,1.34-.56.36-.36.6-.82.72-1.34l5.88-48.28c.64-4.86,2.5-8.76,5.62-11.72,3.12-2.96,6.84-4.44,11.16-4.44,3.9,0,7,1.22,9.26,3.64,2.26,2.42,3.4,5.7,3.4,9.82,0,1.26-.06,2.22-.16,2.84l-5.88,48.12c-.1.52,0,.98.32,1.34.32.38.74.56,1.26.56h14.08c.52,0,1-.18,1.42-.56.42-.36.68-.82.8-1.34l6.34-51.92c.22-2.1.32-3.64.32-4.58,0-7.38-2.16-13.18-6.48-17.42v.04h0Z"/>
          </g>
        </g>
        <path class="cls-4" d="M1045.21,221.44l-9.96-14.62-.36-1.68,2.98-3.5.84-4.96,1.32-.24,4.7-7.92.92.94c.16.1.28.24.44.32,1.56.88,3.22,1.32,4.92,1.32,1.58,0,3.18-.4,4.74-1.16,3.12-1.58,5.66-4.58,7.14-8.44,3.08-8.06.58-17.44-5.6-20.92-.94-.52-1.92-.84-2.9-1.06l5.5-6.68-2.72-3.32-8.74,10.6c-.26.1-.52.16-.78.28-3.12,1.58-5.66,4.58-7.14,8.44-2.18,5.72-1.52,12.06,1.24,16.54l.56.58c-1.24,2.24-3.68,6.32-5.86,8.34-1.98,1.82-3,4.24-8.88,5.06-5.86-.82-6.9-3.24-8.88-5.06-2.18-2.02-4.62-6.1-5.86-8.34l.56-.58c2.76-4.48,3.42-10.82,1.24-16.54-.24-.6-.54-1.14-.82-1.7l3.1-3.76-4.26-5.16-2.98,3.62c-.7-.56-1.42-1.02-2.2-1.42-3.2-1.6-6.62-1.54-9.64.16-6.16,3.48-8.68,12.88-5.6,20.92,1.48,3.86,4.02,6.86,7.14,8.44,1.54.78,3.14,1.16,4.74,1.16,1.68,0,3.36-.44,4.92-1.32.16-.08.28-.22.44-.32l.92-.96,4.7,7.92,1.32.24.84,4.96,2.98,3.5-.36,1.68-9.96,14.62-17.98,34.2-.3,3.3,35.96-45.88,35.96,45.88-.3-3.3-17.98-34.2-.06.02h0ZM1043.61,170.64c1.14-2.96,3.04-5.22,5.4-6.42,1.12-.56,2.26-.84,3.38-.84s2.34.3,3.4.92c4.42,2.5,6.16,9.42,3.86,15.42-1.14,2.96-3.04,5.22-5.4,6.42-2.26,1.14-4.68,1.12-6.8-.06-4.42-2.5-6.16-9.42-3.86-15.42l.02-.02ZM1007.57,186.04c-2.1,1.18-4.52,1.22-6.8.06-2.36-1.18-4.26-3.46-5.4-6.42-2.3-6-.56-12.92,3.86-15.42,1.08-.6,2.22-.92,3.4-.92s2.28.28,3.38.84c2.36,1.18,4.26,3.46,5.4,6.42,2.3,6,.56,12.92-3.86,15.42l.02.02h0ZM1027.53,208.1c-1.16,0-2.12-1.08-2.12-2.42s.94-2.42,2.12-2.42,2.12,1.08,2.12,2.42-.94,2.42-2.12,2.42Z"/>
      </g>
    </g>
  </g>
</svg>