<?xml version="1.0" encoding="UTF-8"?>
<svg id="base" xmlns="http://www.w3.org/2000/svg" viewBox="0 0 1920 358.23">
  <defs>
    <style>
      .cls-1 {
        fill: #e0e9f3;
      }

      .cls-2 {
        fill: #937218;
      }
    </style>
  </defs>
  <path id="background_image_pc" data-name="background image pc" class="cls-1" d="M1903.44,225.92L1181.82,43.25c-16.11-6.84-33.09,7.5-33.09,28.04v231.19h-242.33l.6-272.72c0-20.53-16.98-34.88-33.09-28.04h-.21L16.56,210.04c-9.93,4.2-16.56,15.46-16.56,28.04v120.16h1920v-104.29c0-12.58-6.63-23.83-16.56-28.04h0Z"/>
  <path class="cls-2" d="M1045.21,221.44l-9.96-14.62-.36-1.68,2.98-3.5.84-4.96,1.32-.24,4.7-7.92.92.94c.16.1.28.24.44.32,1.56.88,3.22,1.32,4.92,1.32,1.58,0,3.18-.4,4.74-1.16,3.12-1.58,5.66-4.58,7.14-8.44,3.08-8.06.58-17.44-5.6-20.92-.94-.52-1.92-.84-2.9-1.06l5.5-6.68-2.72-3.32-8.74,10.6c-.26.1-.52.16-.78.28-3.12,1.58-5.66,4.58-7.14,8.44-2.18,5.72-1.52,12.06,1.24,16.54l.56.58c-1.24,2.24-3.68,6.32-5.86,8.34-1.98,1.82-3,4.24-8.88,5.06-5.86-.82-6.9-3.24-8.88-5.06-2.18-2.02-4.62-6.1-5.86-8.34l.56-.58c2.76-4.48,3.42-10.82,1.24-16.54-.24-.6-.54-1.14-.82-1.7l3.1-3.76-4.26-5.16-2.98,3.62c-.7-.56-1.42-1.02-2.2-1.42-3.2-1.6-6.62-1.54-9.64.16-6.16,3.48-8.68,12.88-5.6,20.92,1.48,3.86,4.02,6.86,7.14,8.44,1.54.78,3.14,1.16,4.74,1.16,1.68,0,3.36-.44,4.92-1.32.16-.08.28-.22.44-.32l.92-.96,4.7,7.92,1.32.24.84,4.96,2.98,3.5-.36,1.68-9.96,14.62-17.98,34.2-.3,3.3,35.96-45.88,35.96,45.88-.3-3.3-17.98-34.2-.06.02h0ZM1043.61,170.64c1.14-2.96,3.04-5.22,5.4-6.42,1.12-.56,2.26-.84,3.38-.84s2.34.3,3.4.92c4.42,2.5,6.16,9.42,3.86,15.42-1.14,2.96-3.04,5.22-5.4,6.42-2.26,1.14-4.68,1.12-6.8-.06-4.42-2.5-6.16-9.42-3.86-15.42l.02-.02ZM1007.57,186.04c-2.1,1.18-4.52,1.22-6.8.06-2.36-1.18-4.26-3.46-5.4-6.42-2.3-6-.56-12.92,3.86-15.42,1.08-.6,2.22-.92,3.4-.92s2.28.28,3.38.84c2.36,1.18,4.26,3.46,5.4,6.42,2.3,6,.56,12.92-3.86,15.42l.02.02h0ZM1027.53,208.1c-1.16,0-2.12-1.08-2.12-2.42s.94-2.42,2.12-2.42,2.12,1.08,2.12,2.42-.94,2.42-2.12,2.42Z"/>
</svg>