<?xml version="1.0" encoding="UTF-8"?>
<svg id="base" xmlns="http://www.w3.org/2000/svg" xmlns:xlink="http://www.w3.org/1999/xlink" viewBox="0 0 500 302.59">
  <defs>
    <style>
      .cls-1 {
        fill: none;
      }

      .cls-2 {
        fill: #f1f1f1;
      }

      .cls-3 {
        fill: #4c71b2;
      }

      .cls-4 {
        clip-path: url(#clippath-1);
      }

      .cls-5 {
        fill: #937218;
      }

      .cls-6 {
        clip-path: url(#clippath);
      }
    </style>
    <clipPath id="clippath">
      <rect id="background_house_HOME-2" data-name="background_house_HOME" class="cls-1" y="0" width="500" height="302.59"/>
    </clipPath>
    <clipPath id="clippath-1">
      <rect id="HOME_title-2" data-name="HOME_title" class="cls-1" x="124" y="73.91" width="290.49" height="226.35"/>
    </clipPath>
  </defs>
  <g id="background_house_HOME">
    <g class="cls-6">
      <path id="background_image" data-name="background image" class="cls-2" d="M494.48,91.92L323.94,19.41c-5.37-2.28-11.03,2.5-11.03,9.34v118.69h-93.91V9.92c0-6.84-5.66-11.62-11.03-9.34h-.07L5.52,86.63c-3.31,1.4-5.52,5.15-5.52,9.34v6404.04h500V101.26c0-4.19-2.21-7.94-5.52-9.34Z"/>
    </g>
  </g>
  <g id="HOME_title">
    <g class="cls-4">
      <g id="_.title" data-name=" .title">
        <g>
          <g>
            <path class="cls-3" d="M208.31,207.97c-1.58-.66-3.65-1.36-6.2-2.11-2.77-.79-4.81-1.58-6.13-2.37-1.32-.79-1.98-1.93-1.98-3.43,0-1.58.68-2.82,2.04-3.73,1.36-.9,3.17-1.35,5.41-1.35,2.42,0,4.34.51,5.77,1.52,1.43,1.01,2.14,2.26,2.14,3.76v.2c0,.44.22.66.66.66h3.1c.44,0,.66-.22.66-.66v-.2c0-1.71-.51-3.26-1.52-4.65-1.01-1.38-2.45-2.47-4.32-3.26s-4.01-1.19-6.43-1.19c-3.61,0-6.51.84-8.71,2.51-2.2,1.67-3.3,3.91-3.3,6.73,0,1.94.54,3.53,1.62,4.78s2.41,2.23,3.99,2.93c1.58.7,3.6,1.41,6.07,2.11,2.07.62,3.59,1.12,4.58,1.52.99.4,1.85.95,2.57,1.65.73.7,1.09,1.61,1.09,2.7,0,1.58-.7,2.89-2.11,3.92-1.41,1.03-3.25,1.55-5.54,1.55s-4.19-.54-5.7-1.62c-1.52-1.08-2.28-2.34-2.28-3.79v-.53c0-.44-.22-.66-.66-.66h-3.17c-.44,0-.66.22-.66.66v.79c0,1.63.52,3.1,1.55,4.42,1.03,1.32,2.51,2.37,4.42,3.16,1.91.79,4.1,1.19,6.56,1.19,3.69,0,6.66-.86,8.9-2.57,2.24-1.71,3.36-4,3.36-6.86,0-2.02-.57-3.66-1.71-4.91s-2.51-2.21-4.09-2.87h.02Z"/>
            <path class="cls-3" d="M236.83,190.95c-3.43,0-6.29.77-8.57,2.31-2.29,1.54-3.61,3.54-3.96,6-.09.26.11.44.59.53l3.56.46c.4.05.66-.15.79-.59.31-1.45,1.12-2.58,2.44-3.4,1.32-.81,3.03-1.22,5.14-1.22,2.64,0,4.58.65,5.84,1.95,1.25,1.3,1.88,3.07,1.88,5.31v2.51c0,.18-.09.26-.26.26h-7.65c-4.27,0-7.6.96-9.99,2.87-2.4,1.91-3.59,4.52-3.59,7.81s1.06,5.67,3.17,7.25,4.73,2.37,7.85,2.37c2.15,0,4.11-.34,5.87-1.02,1.76-.68,3.19-1.68,4.29-3,.09-.09.17-.11.23-.07.07.05.1.11.1.2v2.7c0,.44.22.66.66.66h3.36c.44,0,.66-.22.66-.66v-22.16c0-3.34-1.08-6.02-3.23-8.05-2.15-2.02-5.21-3.03-9.17-3.03h-.01ZM244.55,214.17c0,2.2-.95,3.95-2.84,5.24-1.89,1.3-4.13,1.95-6.73,1.95-2.15,0-3.9-.49-5.24-1.48-1.34-.99-2.01-2.45-2.01-4.39,0-2.11.88-3.76,2.64-4.95s4.09-1.78,6.99-1.78h6.92c.18,0,.26.09.26.26v5.14h.01Z"/>
            <path class="cls-3" d="M261.7,178.69h3.36c.36,0,.66.3.66.66v44.85c0,.36-.3.66-.66.66h-3.36c-.36,0-.66-.3-.66-.66v-44.84c0-.36.3-.66.66-.66h0Z"/>
            <path class="cls-3" d="M298.79,193.39c-2.26-1.63-4.96-2.44-8.08-2.44s-6.02.81-8.31,2.44c-2.29,1.63-3.85,3.85-4.68,6.66-.62,1.98-.92,4.66-.92,8.05s.31,6.09.92,8.11c.88,2.86,2.46,5.1,4.75,6.73,2.29,1.63,5.01,2.44,8.18,2.44s5.88-.81,8.14-2.44c2.26-1.63,3.81-3.87,4.65-6.73.61-1.85.92-4.55.92-8.11s-.31-6.22-.92-8.11c-.84-2.77-2.39-4.97-4.65-6.59h0ZM299.09,214.83c-.53,1.98-1.54,3.55-3.03,4.72-1.5,1.17-3.3,1.75-5.41,1.75s-4.06-.58-5.57-1.75c-1.52-1.16-2.52-2.74-3-4.72-.35-1.54-.53-3.76-.53-6.66s.18-5.12.53-6.66c.53-1.98,1.54-3.55,3.03-4.72,1.49-1.16,3.32-1.75,5.47-1.75s3.99.58,5.51,1.75c1.52,1.17,2.54,2.74,3.07,4.72.35,1.54.53,3.76.53,6.66s-.2,5.08-.59,6.66h0Z"/>
            <path class="cls-3" d="M337.66,194.12c-2.09-2.07-4.89-3.1-8.41-3.1-4,0-6.97,1.36-8.9,4.09-.04.09-.1.11-.17.07-.07-.04-.1-.11-.1-.2v-2.84c0-.44-.22-.66-.66-.66h-3.36c-.44,0-.66.22-.66.66v32.05c0,.44.22.66.66.66h3.36c.44,0,.66-.22.66-.66v-20.97c0-2.42.75-4.37,2.24-5.87,1.49-1.49,3.45-2.24,5.87-2.24s4.23.77,5.7,2.31c1.47,1.54,2.21,3.52,2.21,5.94v20.84c0,.44.22.66.66.66h3.36c.44,0,.66-.22.66-.66v-21.76c0-3.47-1.04-6.24-3.13-8.31h0Z"/>
          </g>
          <g>
            <path class="cls-3" d="M156.13,261.4c-2.3-1.95-5.31-2.93-9.06-2.93s-6.75,1.35-9.18,4.04c-.32.21-.47.13-.47-.24l2.14-17.17c.05-.26,0-.49-.16-.67s-.37-.28-.63-.28h-7.12c-.26,0-.49.09-.67.28-.19.18-.3.41-.36.67l-6.6,53.5c-.05.26,0,.49.16.67.16.19.37.28.63.28h7.12c.26,0,.49-.09.67-.28s.3-.41.36-.67l.32-2.45c0-.16.05-.26.16-.32.1-.05.21,0,.32.16.9,1.32,2.04,2.35,3.44,3.09,1.4.74,3.02,1.11,4.87,1.11,3.64,0,6.82-.98,9.54-2.93,2.72-1.95,4.87-4.67,6.45-8.15,1.32-2.85,2.22-6.15,2.69-9.89.21-2.22.32-3.77.32-4.67,0-1.74-.16-3.4-.47-4.99-.69-3.48-2.17-6.2-4.47-8.15h0ZM151.57,279.37c-.48,3.9-1.45,6.94-2.93,9.1-1.74,2.53-4.09,3.8-7.04,3.8-2.64,0-4.46-1.27-5.46-3.8-.63-1.37-.95-3.09-.95-5.14,0-.69.11-2.03.32-4.04.48-4.01,1.48-7.15,3.01-9.42,1.69-2.32,3.77-3.48,6.25-3.48,2.69,0,4.59,1.11,5.7,3.32.9,1.64,1.34,3.75,1.34,6.33,0,1-.08,2.11-.24,3.32h0Z"/>
            <path class="cls-3" d="M196.76,259.66c-1.16-.69-2.56-1.03-4.19-1.03-3.91,0-7.1,1.71-9.58,5.14-.11.16-.21.23-.32.2s-.13-.15-.08-.36l.48-3.56c0-.63-.29-.95-.87-.95h-7.04c-.26,0-.49.09-.67.28-.18.18-.3.41-.36.67l-4.76,38.54c-.05.26,0,.49.16.67.16.19.37.28.63.28h7.12c.26,0,.49-.09.67-.28s.3-.41.36-.67l2.7-22.4c.32-2.32,1.28-4.21,2.89-5.66,1.61-1.45,3.5-2.23,5.66-2.33.37-.05.87-.08,1.5-.08,1,0,1.9.13,2.69.4.58.26.95.08,1.11-.55l2.22-7.12c.11-.58,0-.98-.32-1.19h0Z"/>
            <path class="cls-3" d="M230.76,261.56c-2.59-2.06-5.83-3.09-9.73-3.09-4.12,0-7.74,1.03-10.88,3.09-3.14,2.06-5.56,4.93-7.24,8.63-1.11,2.69-1.88,5.7-2.3,9.02-.16,1.32-.24,2.69-.24,4.12,0,1.69.13,3.32.39,4.91.74,3.75,2.42,6.67,5.06,8.78s5.96,3.17,9.97,3.17,7.5-1.07,10.64-3.21,5.53-5.08,7.16-8.82c1.21-2.8,2.01-5.8,2.38-9.02.16-1.37.24-2.69.24-3.96,0-1.9-.16-3.59-.47-5.06-.74-3.64-2.4-6.49-4.98-8.55h0ZM226.95,279.29c-.27,2.59-.79,4.8-1.58,6.65-.84,2.01-2.02,3.56-3.52,4.67s-3.18,1.66-5.03,1.66c-2.01,0-3.64-.55-4.91-1.66s-2.08-2.66-2.45-4.67c-.11-1.05-.16-1.98-.16-2.77,0-1.27.08-2.56.24-3.88.32-2.43.85-4.64,1.59-6.65.9-2,2.1-3.55,3.6-4.63,1.5-1.08,3.2-1.62,5.1-1.62s3.56.54,4.83,1.62c1.27,1.08,2.06,2.62,2.37,4.63.16.69.24,1.53.24,2.53,0,.74-.11,2.11-.32,4.12h0Z"/>
            <path class="cls-3" d="M281.49,259.11h-7.04c-.26,0-.5.09-.71.28-.21.18-.34.41-.4.67l-.4,3.32c0,.21-.05.33-.16.36s-.21-.04-.32-.2c-1.58-3.38-4.54-5.07-8.86-5.07-3.54,0-6.68.99-9.42,2.97-2.75,1.98-4.8,4.55-6.18,7.72-1.06,2.48-1.85,5.86-2.38,10.13-.37,2.74-.55,4.85-.56,6.33,0,1.06.08,2.06.24,3.01.47,3.54,1.86,6.35,4.15,8.43,2.29,2.08,5.16,3.13,8.59,3.13,4.54,0,8.07-1.82,10.61-5.46.11-.16.21-.22.32-.2.11.03.13.15.08.36l-.4,3.72c-.05.26,0,.49.16.67.16.19.37.28.63.28h7.04c.26,0,.49-.09.67-.28s.3-.41.36-.67l4.76-38.54c.05-.26,0-.49-.16-.67s-.37-.28-.63-.28h0ZM271.03,279.37c-.26,2.06-.52,3.57-.75,4.55-.24.98-.54,1.86-.91,2.65-.69,1.69-1.7,3.06-3.05,4.12-1.35,1.06-2.94,1.58-4.79,1.58s-3.46-.53-4.67-1.58c-1.21-1.05-1.93-2.43-2.14-4.12-.16-.79-.24-1.61-.24-2.45,0-1.37.13-2.98.4-4.83.26-2.06.52-3.57.75-4.55.24-.98.54-1.86.91-2.65.63-1.69,1.67-3.06,3.13-4.12,1.45-1.05,3.13-1.58,5.03-1.58,1.79,0,3.26.53,4.39,1.58,1.13,1.06,1.78,2.37,1.94,3.96.26.9.39,1.79.39,2.69,0,.69-.13,2.27-.4,4.75h0Z"/>
            <path class="cls-3" d="M328.49,244.15h-7.04c-.26,0-.49.09-.67.28-.18.18-.3.41-.36.67l-2.14,17.17c0,.16-.05.25-.16.28s-.21,0-.32-.12c-1.9-2.64-4.62-3.96-8.15-3.96-3.8,0-7.08.98-9.85,2.93-2.77,1.95-4.92,4.67-6.45,8.15-1.21,2.74-2.03,5.96-2.46,9.66-.21,1.42-.32,2.98-.32,4.67,0,1.79.16,3.54.47,5.22.68,3.48,2.16,6.2,4.43,8.15,2.27,1.95,5.22,2.93,8.86,2.93s6.75-1.37,9.34-4.12c.11-.16.21-.21.32-.16s.13.16.08.32l-.24,2.37c-.05.26,0,.49.16.67.16.19.37.28.63.28h7.04c.26,0,.49-.09.67-.28s.3-.41.36-.67l6.58-53.5c.05-.26,0-.49-.16-.67s-.37-.28-.63-.28h.01ZM316.13,279.29c-.48,3.91-1.45,6.96-2.93,9.18-1.74,2.53-3.91,3.8-6.49,3.8-2.9,0-4.93-1.27-6.09-3.8-.63-1.53-.95-3.43-.95-5.7,0-1.11.08-2.24.24-3.4.48-4.06,1.64-7.28,3.48-9.66,1.74-2.22,3.93-3.32,6.57-3.32,2.48,0,4.27,1.16,5.38,3.48.69,1.42,1.03,3.32,1.03,5.7,0,1.11-.08,2.35-.24,3.72h0Z"/>
            <path class="cls-3" d="M355.49,258.48c-4.01,0-7.56,1.07-10.64,3.21-3.09,2.14-5.37,5.05-6.85,8.74-.95,2.16-1.61,5.04-1.98,8.63-.21,1.48-.32,3.01-.32,4.59,0,2.32.26,4.35.79,6.09.9,3.32,2.61,5.91,5.14,7.76,2.53,1.85,5.8,2.77,9.81,2.77,3.22,0,6.22-.63,9.02-1.9,2.8-1.27,5.12-3.06,6.97-5.38.21-.32.32-.53.32-.63,0-.16-.13-.37-.4-.63l-4.19-4.04c-.16-.16-.34-.24-.55-.24-.26,0-.53.16-.79.47-2.43,2.96-5.38,4.43-8.87,4.43-4.7-.05-7.47-1.98-8.31-5.78-.16-.58-.24-1.27-.24-2.06,0-.63.03-1.13.08-1.5,0-.26.13-.4.4-.4h23.98c.63,0,.98-.32,1.03-.95.42-2.8.63-5.17.63-7.12,0-10.71-5.01-16.07-15.03-16.07h0ZM361.66,275.41c0,.26-.13.4-.4.4h-15.59c-.26,0-.34-.13-.24-.4.26-1.37.61-2.53,1.03-3.48.74-1.74,1.78-3.1,3.13-4.08,1.34-.98,2.99-1.46,4.95-1.46,2.06,0,3.69.53,4.91,1.58,1.21,1.06,1.95,2.53,2.21,4.43.05.21.08.66.08,1.35s-.03,1.24-.08,1.66h0Z"/>
            <path class="cls-3" d="M411.25,261.64c-2.16-2.11-5.12-3.17-8.86-3.17-4.27,0-7.6,1.42-9.97,4.27-.11.16-.21.21-.32.16-.11-.05-.13-.16-.08-.32l.32-2.53c0-.63-.29-.95-.87-.95h-7.04c-.26,0-.49.09-.67.28-.18.18-.3.41-.36.67l-4.76,38.54c-.05.26,0,.49.16.67.16.19.37.28.63.28h7.12c.26,0,.49-.09.67-.28.18-.18.3-.41.36-.67l2.94-24.14c.32-2.43,1.25-4.38,2.81-5.86s3.42-2.22,5.58-2.22c1.95,0,3.5.61,4.63,1.82,1.13,1.21,1.7,2.85,1.7,4.91,0,.63-.03,1.11-.08,1.42l-2.94,24.06c-.05.26,0,.49.16.67.16.19.37.28.63.28h7.04c.26,0,.5-.09.71-.28.21-.18.34-.41.4-.67l3.17-25.96c.11-1.05.16-1.82.16-2.29,0-3.69-1.08-6.59-3.24-8.71v.02Z"/>
          </g>
        </g>
        <path class="cls-5" d="M274.78,109.87l-4.98-7.31-.18-.84,1.49-1.75.42-2.48.66-.12,2.35-3.96.46.47c.08.05.14.12.22.16.78.44,1.61.66,2.46.66.79,0,1.59-.2,2.37-.58,1.56-.79,2.83-2.29,3.57-4.22,1.54-4.03.29-8.72-2.8-10.46-.47-.26-.96-.42-1.45-.53l2.75-3.34-1.36-1.66-4.37,5.3c-.13.05-.26.08-.39.14-1.56.79-2.83,2.29-3.57,4.22-1.09,2.86-.76,6.03.62,8.27l.28.29c-.62,1.12-1.84,3.16-2.93,4.17-.99.91-1.5,2.12-4.44,2.53-2.93-.41-3.45-1.62-4.44-2.53-1.09-1.01-2.31-3.05-2.93-4.17l.28-.29c1.38-2.24,1.71-5.41.62-8.27-.12-.3-.27-.57-.41-.85l1.55-1.88-2.13-2.58-1.49,1.81c-.35-.28-.71-.51-1.1-.71-1.6-.8-3.31-.77-4.82.08-3.08,1.74-4.34,6.44-2.8,10.46.74,1.93,2.01,3.43,3.57,4.22.77.39,1.57.58,2.37.58.84,0,1.68-.22,2.46-.66.08-.04.14-.11.22-.16l.46-.48,2.35,3.96.66.12.42,2.48,1.49,1.75-.18.84-4.98,7.31-8.99,17.1-.15,1.65,17.98-22.94,17.98,22.94-.15-1.65-8.99-17.1h-.03ZM273.98,84.47c.57-1.48,1.52-2.61,2.7-3.21.56-.28,1.13-.42,1.69-.42s1.17.15,1.7.46c2.21,1.25,3.08,4.71,1.93,7.71-.57,1.48-1.52,2.61-2.7,3.21-1.13.57-2.34.56-3.4-.03-2.21-1.25-3.08-4.71-1.93-7.71h0ZM255.96,92.17c-1.05.59-2.26.61-3.4.03-1.18-.59-2.13-1.73-2.7-3.21-1.15-3-.28-6.46,1.93-7.71.54-.3,1.11-.46,1.7-.46s1.14.14,1.69.42c1.18.59,2.13,1.73,2.7,3.21,1.15,3,.28,6.46-1.93,7.71h0ZM265.94,103.2c-.58,0-1.06-.54-1.06-1.21s.47-1.21,1.06-1.21,1.06.54,1.06,1.21-.47,1.21-1.06,1.21Z"/>
      </g>
    </g>
  </g>
</svg>