<?xml version="1.0" encoding="UTF-8"?>
<svg id="base" xmlns="http://www.w3.org/2000/svg" version="1.1" viewBox="0 0 1920 179.3">
  <!-- Generator: Adobe Illustrator 29.5.1, SVG Export Plug-In . SVG Version: 2.1.0 Build 141)  -->
  <defs>
    <style>
      .st0 {
        fill: #e0e9f3;
      }

      .st1 {
        fill: #937218;
      }
    </style>
  </defs>
  <path id="background_image_pc" class="st0" d="M1913.4,134.4L1048.7,23.3c-6.8-1.2-13.2,3-13.2,11.2v102.5h-96.9l.2-125.1c0-8.2-3.7-12.5-13.2-11.2h0L6.6,128c-4,1.7-6.6,6.2-6.6,11.2v40.1h1920v-33.7c0-5-2.6-9.5-6.6-11.2h0Z"/>
  <path class="st1" d="M994.1,104.6l-4-5.8v-.7c0,0,1-1.4,1-1.4l.3-2h.5l1.9-3.3.4.4s0,0,.2,0c.6.4,1.3.5,2,.5s1.3-.2,1.9-.5c1.2-.6,2.3-1.8,2.9-3.4,1.2-3.2.2-7-2.2-8.4-.4-.2-.8-.3-1.2-.4l2.2-2.7-1.1-1.3-3.5,4.2c0,0-.2,0-.3,0-1.2.6-2.3,1.8-2.9,3.4-.9,2.3-.6,4.8.5,6.6l.2.2c-.5.9-1.5,2.5-2.3,3.3-.8.7-1.2,1.7-3.6,2-2.3-.3-2.8-1.3-3.6-2-.9-.8-1.8-2.4-2.3-3.3l.2-.2c1.1-1.8,1.4-4.3.5-6.6,0-.2-.2-.5-.3-.7l1.2-1.5-1.7-2.1-1.2,1.4c-.3-.2-.6-.4-.9-.6-1.3-.6-2.6-.6-3.9,0-2.5,1.4-3.5,5.2-2.2,8.4.6,1.5,1.6,2.7,2.9,3.4.6.3,1.3.5,1.9.5s1.3-.2,2-.5c0,0,0,0,.2,0l.4-.4,1.9,3.2h.5l.3,2.1,1.2,1.4v.7c0,0-4.1,5.8-4.1,5.8l-7.2,13.7v1.3c0,0,14.3-18.4,14.3-18.4l14.4,18.4v-1.3c0,0-7.3-13.7-7.3-13.7h0v.2ZM993.4,84.3c.5-1.2,1.2-2.1,2.2-2.6.4-.2.9-.3,1.4-.3s.9,0,1.4.4c1.8,1,2.5,3.8,1.5,6.2s-1.2,2.1-2.2,2.6c-.9.5-1.9.4-2.7,0-1.8-1-2.5-3.8-1.5-6.2h-.1ZM979,90.4c-.8.5-1.8.5-2.7,0s-1.7-1.4-2.2-2.6c-.9-2.4-.2-5.2,1.5-6.2.4-.2.9-.4,1.4-.4s.9,0,1.4.3c.9.5,1.7,1.4,2.2,2.6.9,2.4.2,5.2-1.5,6.2h-.1ZM987,99.2c-.5,0-.8-.4-.8-1s.4-1,.8-1,.8.4.8,1-.4,1-.8,1Z"/>
</svg>