<?xml version="1.0" encoding="UTF-8"?>
<svg id="header" xmlns="http://www.w3.org/2000/svg" viewBox="0 0 60.37 50">
  <defs>
    <style>
      .cls-1 {
        fill: #4c71b2;
      }
    </style>
  </defs>
  <path id="_.house" data-name=".house" class="cls-1" d="M59.71,11.2L39.12,2.45c-.65-.28-1.33.3-1.33,1.13v20.32h-11.34V1.3c0-.83-.68-1.4-1.33-1.13h0L.67,10.56C.27,10.73,0,11.18,0,11.69v37.21c0,.66.44,1.2,1,1.2h58.37c.55,0,1-.53,1-1.2V12.33c0-.51-.27-.96-.67-1.13ZM18.95,39.45c0,1.32-1.07,2.4-2.4,2.4h-7.13c-1.32,0-2.4-1.07-2.4-2.4v-2.14c0-1.32,1.07-2.4,2.4-2.4h7.13c1.32,0,2.4,1.07,2.4,2.4v2.14ZM18.95,21.49c0,1.32-1.07,2.4-2.4,2.4h-7.13c-1.32,0-2.4-1.07-2.4-2.4v-2.14c0-1.32,1.07-2.4,2.4-2.4h7.13c1.32,0,2.4,1.07,2.4,2.4v2.14ZM52.08,39.16c0,1.48-1.2,2.68-2.68,2.68h-1.1c-1.48,0-2.68-1.2-2.68-2.68v-3.73c0-1.48,1.2-2.68,2.68-2.68h1.1c1.48,0,2.68,1.2,2.68,2.68v3.73Z"/>
</svg>