<?xml version="1.0" encoding="UTF-8"?>
<svg id="footer" xmlns="http://www.w3.org/2000/svg" version="1.1" viewBox="0 0 73.2 78.4">
  <!-- Generator: Adobe Illustrator 29.8.6, SVG Export Plug-In . SVG Version: 2.1.1 Build 1)  -->
  <defs>
    <style>
      .st0 {
        fill: #a98e46;
      }
    </style>
  </defs>
  <path class="st0" d="M12.7,6.4v4.7c0,.4.9,2.3,1.2,2.8,2.7,3.9,8.6,3.6,11.1-.4.3-.4,1-1.8,1-2.2v-4.9h21.1v4.9c0,.4.7,1.8,1,2.2,2.5,4,8.4,4.2,11.1.4.3-.4,1.2-2.3,1.2-2.8v-4.7c6.5-.3,12.1,4.8,12.7,11.2v50.1c-.9,5.8-5.7,10.3-11.6,10.7H11.2c-5.9-.6-10.7-5.3-11.2-11.2V17.3C.8,11,6.4,6.1,12.7,6.4ZM67.6,24.7H5.6v42.5c0,2.4,3.6,5.7,6.1,5.7h49.5c2.6.3,6.5-3.2,6.5-5.7V24.7h0Z"/>
  <path class="st0" d="M18.6,0c2-.4,3.8.8,4,2.8.2,1.5.2,6.5,0,7.9-.7,3.3-6,3.3-6.5-.7-.2-1.5-.2-5.9,0-7.3.2-1.2,1.2-2.4,2.5-2.7h0Z"/>
  <path class="st0" d="M53.1,0c2.1-.4,3.8.9,4,3,.2,1.4.2,6.1,0,7.5-.7,3.6-6.1,3.4-6.5-.3-.2-1.6-.2-6.2,0-7.7.2-1.2,1.3-2.3,2.5-2.5h0Z"/>
  <rect class="st0" x="25.5" y="30.5" width="8.3" height="8.3"/>
  <rect class="st0" x="39.4" y="30.5" width="8.3" height="8.3"/>
  <rect class="st0" x="53.5" y="30.5" width="8.4" height="8.3"/>
  <rect class="st0" x="11.3" y="44.4" width="8.4" height="8.4"/>
  <rect class="st0" x="25.5" y="44.4" width="8.3" height="8.4"/>
  <rect class="st0" x="39.4" y="44.4" width="8.3" height="8.4"/>
  <rect class="st0" x="53.5" y="44.4" width="8.4" height="8.4"/>
  <rect class="st0" x="11.3" y="58.5" width="8.4" height="8.3"/>
  <rect class="st0" x="25.5" y="58.5" width="8.3" height="8.3"/>
  <rect class="st0" x="39.4" y="58.5" width="8.3" height="8.3"/>
</svg>