<?xml version="1.0" encoding="UTF-8"?>
<svg id="footer" xmlns="http://www.w3.org/2000/svg" viewBox="0 0 121.5 31.83">
  <defs>
    <style>
      .cls-1 {
        fill: #a98e46;
      }
    </style>
  </defs>
  <path id="Initiator" class="cls-1" d="M31.95,15.98C31.95,7.15,24.8,0,15.98,0S0,7.15,0,15.98c0,7.49,5.16,13.78,12.12,15.5v-10.62h-3.29v-4.88h3.29v-2.1c0-5.44,2.46-7.96,7.8-7.96,1.01,0,2.76.2,3.47.4v4.43c-.38-.04-1.03-.06-1.85-.06-2.62,0-3.63.99-3.63,3.57v1.73h5.22l-.9,4.88h-4.32v10.98c7.91-.96,14.04-7.69,14.04-15.86Z"/>
  <g>
    <path class="cls-1" d="M50.45,10.79c-.91,0-1.17.4-1.17,1.29v1.47h2.42l-.24,2.38h-2.18v7.22h-2.91v-7.22h-1.96v-2.38h1.96v-1.43c0-2.4.97-3.67,3.67-3.67.57,0,1.13.03,1.69.1v2.24h-1.29Z"/>
    <path class="cls-1" d="M51.9,18.05c0-2.68,1.27-4.7,3.93-4.7,1.45,0,2.34.75,2.76,1.67v-1.47h2.78v9.6h-2.78v-1.45c-.4.93-1.31,1.65-2.76,1.65-2.66,0-3.93-2.02-3.93-4.7v-.6ZM54.8,18.7c0,1.43.52,2.38,1.88,2.38,1.19,0,1.8-.87,1.8-2.24v-.96c0-1.37-.6-2.24-1.8-2.24-1.35,0-1.88.95-1.88,2.38v.68Z"/>
    <path class="cls-1" d="M67.43,13.35c1.13,0,2.2.24,2.78.65l-.65,2.06c-.61-.29-1.27-.44-1.94-.44-1.57,0-2.26.91-2.26,2.46v.56c0,1.55.69,2.46,2.26,2.46.67,0,1.33-.16,1.94-.44l.65,2.06c-.58.4-1.65.65-2.78.65-3.41,0-4.96-1.84-4.96-4.78v-.44c0-2.94,1.55-4.78,4.96-4.78Z"/>
    <path class="cls-1" d="M70.6,18.72v-.85c0-2.72,1.55-4.51,4.72-4.51,2.98,0,4.3,1.82,4.3,4.48v1.53h-6.11c.06,1.31.65,1.9,2.26,1.9,1.09,0,2.24-.22,3.09-.58l.53,1.99c-.77.4-2.34.71-3.73.71-3.68,0-5.05-1.83-5.05-4.66ZM73.5,17.47h3.51v-.24c0-1.05-.42-1.88-1.69-1.88-1.31,0-1.82.83-1.82,2.12h0Z"/>
    <path class="cls-1" d="M90.38,18.66c0,2.68-1.29,4.7-3.95,4.7-1.45,0-2.46-.73-2.86-1.65v1.45h-2.74v-14.42l2.9-.26v6.41c.42-.85,1.35-1.53,2.7-1.53,2.66,0,3.95,2.02,3.95,4.7v.6ZM87.47,17.99c0-1.35-.52-2.36-1.92-2.36-1.19,0-1.84.85-1.84,2.22v1.01c0,1.37.65,2.22,1.84,2.22,1.39,0,1.92-1.01,1.92-2.36v-.73Z"/>
    <path class="cls-1" d="M91.35,18.6v-.48c0-2.76,1.57-4.76,4.78-4.76s4.78,2,4.78,4.76v.48c0,2.76-1.57,4.76-4.78,4.76s-4.78-2-4.78-4.76ZM98,17.91c0-1.27-.52-2.28-1.88-2.28s-1.88,1.01-1.88,2.28v.89c0,1.27.52,2.28,1.88,2.28s1.88-1.01,1.88-2.28v-.89Z"/>
    <path class="cls-1" d="M101.88,18.6v-.48c0-2.76,1.57-4.76,4.78-4.76s4.78,2,4.78,4.76v.48c0,2.76-1.57,4.76-4.78,4.76s-4.78-2-4.78-4.76ZM108.53,17.91c0-1.27-.52-2.28-1.88-2.28s-1.88,1.01-1.88,2.28v.89c0,1.27.52,2.28,1.88,2.28s1.88-1.01,1.88-2.28v-.89Z"/>
    <path class="cls-1" d="M115.43,18.13l2.86-4.58h3.09l-3,4.74,3.13,4.86h-3.09l-2.98-4.7v4.7h-2.91v-14.42l2.91-.26v9.66Z"/>
  </g>
</svg>