<?xml version="1.0" encoding="UTF-8"?>
<svg id="base" xmlns="http://www.w3.org/2000/svg" version="1.1" xmlns:xlink="http://www.w3.org/1999/xlink" viewBox="0 0 1920 259.3">
  <!-- Generator: Adobe Illustrator 29.5.1, SVG Export Plug-In . SVG Version: 2.1.0 Build 141)  -->
  <defs>
    <style>
      .st0 {
        fill: none;
      }

      .st1 {
        fill: #f1f1f1;
      }

      .st2 {
        fill: #4c71b2;
      }

      .st3 {
        clip-path: url(#clippath);
      }

      .st4 {
        fill: #937218;
      }
    </style>
    <clipPath id="clippath">
      <rect class="st0" x="873.5" y="75.8" width="232.4" height="181.1"/>
    </clipPath>
  </defs>
  <path id="background_image_pc" class="st1" d="M1913.4,134.4L1048.7,23.3c-7-1-13.2,3-13.2,11.2v102.5h-96.9l.2-125.1c0-8.2-3.8-12.7-13.2-11.2h0L6.6,128c-4,1.7-6.6,6.2-6.6,11.2v120.1h1920v-113.7c0-5-2.6-9.5-6.6-11.2h0Z"/>
  <g id="HOME_title">
    <g class="st3">
      <g id="_.title">
        <g>
          <g>
            <path class="st2" d="M940.9,183.1c-1.3-.5-2.9-1.1-5-1.7-2.2-.6-3.8-1.3-4.9-1.9s-1.6-1.5-1.6-2.7.5-2.3,1.6-3,2.5-1.1,4.3-1.1,3.5.4,4.6,1.2,1.7,1.8,1.7,3v.2c0,.4.2.5.5.5h2.5c.4,0,.5-.2.5-.5v-.2c0-1.4-.4-2.6-1.2-3.7-.8-1.1-2-2-3.5-2.6s-3.2-1-5.1-1c-2.9,0-5.2.7-7,2s-2.6,3.1-2.6,5.4.4,2.8,1.3,3.8,1.9,1.8,3.2,2.3,2.9,1.1,4.9,1.7c1.7.5,2.9.9,3.7,1.2s1.5.8,2.1,1.3c.6.6.9,1.3.9,2.2,0,1.3-.6,2.3-1.7,3.1s-2.6,1.2-4.4,1.2-3.4-.4-4.6-1.3c-1.2-.9-1.8-1.9-1.8-3v-.4c0-.4-.2-.5-.5-.5h-2.5c-.4,0-.5.2-.5.5v.6c0,1.3.4,2.5,1.2,3.5.8,1.1,2,1.9,3.5,2.5s3.3,1,5.2,1c3,0,5.3-.7,7.1-2.1,1.8-1.4,2.7-3.2,2.7-5.5s-.5-2.9-1.4-3.9-2-1.8-3.3-2.3h0v.2Z"/>
            <path class="st2" d="M963.7,169.4c-2.7,0-5,.6-6.9,1.8-1.8,1.2-2.9,2.8-3.2,4.8,0,.2,0,.4.5.4l2.8.4c.3,0,.5-.1.6-.5.2-1.2.9-2.1,2-2.7,1.1-.6,2.4-1,4.1-1s3.7.5,4.7,1.6c1,1,1.5,2.5,1.5,4.2v2c0,.1,0,.2-.2.2h-6.1c-3.4,0-6.1.8-8,2.3s-2.9,3.6-2.9,6.2.8,4.5,2.5,5.8,3.8,1.9,6.3,1.9,3.3-.3,4.7-.8,2.6-1.3,3.4-2.4h.2v2.4c0,.4.2.5.5.5h2.7c.4,0,.5-.2.5-.5v-17.7c0-2.7-.9-4.8-2.6-6.4-1.7-1.6-4.2-2.4-7.3-2.4h.2ZM969.9,188c0,1.8-.8,3.2-2.3,4.2s-3.3,1.6-5.4,1.6-3.1-.4-4.2-1.2c-1.1-.8-1.6-2-1.6-3.5s.7-3,2.1-4,3.3-1.4,5.6-1.4h5.5c0,0,.2,0,.2.2v4.1h.1Z"/>
            <path class="st2" d="M983.6,159.6h2.7c.3,0,.5.2.5.5v35.9c0,.3-.2.5-.5.5h-2.7c-.3,0-.5-.2-.5-.5v-35.9c0-.3.2-.5.5-.5h0Z"/>
            <path class="st2" d="M1013.3,171.4c-1.8-1.3-4-2-6.5-2s-4.8.6-6.6,2-3.1,3.1-3.7,5.3c-.5,1.6-.7,3.7-.7,6.4s.2,4.9.7,6.5c.7,2.3,2,4.1,3.8,5.4,1.8,1.3,4,2,6.5,2s4.7-.6,6.5-2,3-3.1,3.7-5.4c.5-1.5.7-3.6.7-6.5s-.2-5-.7-6.5c-.7-2.2-1.9-4-3.7-5.3h0ZM1013.5,188.5c-.4,1.6-1.2,2.8-2.4,3.8-1.2.9-2.6,1.4-4.3,1.4s-3.2-.5-4.5-1.4c-1.2-.9-2-2.2-2.4-3.8-.3-1.2-.4-3-.4-5.3s0-4.1.4-5.3c.4-1.6,1.2-2.8,2.4-3.8,1.2-.9,2.7-1.4,4.4-1.4s3.2.5,4.4,1.4,2,2.2,2.5,3.8c.3,1.2.4,3,.4,5.3s-.2,4.1-.5,5.3h0Z"/>
            <path class="st2" d="M1044.4,172c-1.7-1.7-3.9-2.5-6.7-2.5s-5.6,1.1-7.1,3.3h0v-2.5c0-.4-.2-.5-.5-.5h-2.7c-.4,0-.5.2-.5.5v25.6c0,.4.2.5.5.5h2.7c.4,0,.5-.2.5-.5v-16.8c0-1.9.6-3.5,1.8-4.7,1.2-1.2,2.8-1.8,4.7-1.8s3.4.6,4.6,1.8,1.8,2.8,1.8,4.8v16.7c0,.4.2.5.5.5h2.7c.4,0,.5-.2.5-.5v-17.4c0-2.8-.8-5-2.5-6.6h-.2Z"/>
          </g>
          <g>
            <path class="st2" d="M899.2,225.8c-1.8-1.6-4.2-2.3-7.2-2.3s-5.4,1.1-7.3,3.2c-.3.2-.4.1-.4-.2l1.7-13.7c0-.2,0-.4,0-.5s-.3-.2-.5-.2h-5.7c-.2,0-.4,0-.5.2-.2.1-.2.3-.3.5l-5.3,42.8c0,.2,0,.4,0,.5,0,.2.3.2.5.2h5.7c.2,0,.4,0,.5-.2s.2-.3.3-.5l.3-2c0-.1,0-.2,0-.3,0,0,.2,0,.3.1.7,1.1,1.6,1.9,2.8,2.5,1.2.6,2.4.9,3.9.9,2.9,0,5.5-.8,7.6-2.3,2.2-1.6,3.9-3.7,5.2-6.5,1.1-2.3,1.8-4.9,2.2-7.9.2-1.8.3-3,.3-3.7,0-1.4,0-2.7-.4-4-.6-2.8-1.7-5-3.6-6.5h-.2ZM895.5,240.2c-.4,3.1-1.2,5.6-2.3,7.3-1.4,2-3.3,3-5.6,3s-3.6-1-4.4-3c-.5-1.1-.8-2.5-.8-4.1s0-1.6.3-3.2c.4-3.2,1.2-5.7,2.4-7.5,1.4-1.9,3-2.8,5-2.8s3.7.9,4.6,2.7c.7,1.3,1.1,3,1.1,5.1s0,1.7-.2,2.7h0v-.2Z"/>
            <path class="st2" d="M931.7,224.4c-.9-.6-2-.8-3.4-.8-3.1,0-5.7,1.4-7.7,4.1,0,.1-.2.2-.3.2s0-.1,0-.3l.4-2.8c0-.5-.2-.8-.7-.8h-5.6c-.2,0-.4,0-.5.2,0,.1-.2.3-.3.5l-3.8,30.8c0,.2,0,.4,0,.5,0,.2.3.2.5.2h5.7c.2,0,.4,0,.5-.2s.2-.3.3-.5l2.2-17.9c.3-1.9,1-3.4,2.3-4.5s2.8-1.8,4.5-1.9h1.2c.8,0,1.5.1,2.2.3.5.2.8,0,.9-.4l1.8-5.7c0-.5,0-.8-.3-1h0Z"/>
            <path class="st2" d="M958.9,225.9c-2.1-1.6-4.7-2.5-7.8-2.5s-6.2.8-8.7,2.5-4.4,3.9-5.8,6.9c-.9,2.2-1.5,4.6-1.8,7.2,0,1.1-.2,2.2-.2,3.3s0,2.7.3,3.9c.6,3,1.9,5.3,4,7s4.8,2.5,8,2.5,6-.9,8.5-2.6,4.4-4.1,5.7-7.1c1-2.2,1.6-4.6,1.9-7.2,0-1.1.2-2.2.2-3.2,0-1.5,0-2.9-.4-4-.6-2.9-1.9-5.2-4-6.8h0ZM955.8,240.1c-.2,2.1-.6,3.8-1.3,5.3-.7,1.6-1.6,2.8-2.8,3.7s-2.5,1.3-4,1.3-2.9-.4-3.9-1.3-1.7-2.1-2-3.7c0-.8,0-1.6,0-2.2,0-1,0-2,.2-3.1.3-1.9.7-3.7,1.3-5.3.7-1.6,1.7-2.8,2.9-3.7s2.6-1.3,4.1-1.3,2.8.4,3.9,1.3,1.6,2.1,1.9,3.7c0,.6.2,1.2.2,2s0,1.7-.3,3.3h-.1Z"/>
            <path class="st2" d="M999.5,224h-5.6c-.2,0-.4,0-.6.2-.2.1-.3.3-.3.5l-.3,2.7c0,.2,0,.3,0,.3s-.2,0-.3-.2c-1.3-2.7-3.6-4.1-7.1-4.1s-5.3.8-7.5,2.4c-2.2,1.6-3.8,3.6-4.9,6.2-.8,2-1.5,4.7-1.9,8.1-.3,2.2-.4,3.9-.4,5.1s0,1.6.2,2.4c.4,2.8,1.5,5.1,3.3,6.7,1.8,1.7,4.1,2.5,6.9,2.5s6.5-1.5,8.5-4.4c0-.1.2-.2.3-.2,0,0,0,.1,0,.3l-.3,3c0,.2,0,.4,0,.5,0,.2.3.2.5.2h5.6c.2,0,.4,0,.5-.2s.2-.3.3-.5l3.8-30.8c0-.2,0-.4,0-.5s-.3-.2-.5-.2h-.1ZM991.1,240.2c-.2,1.6-.4,2.9-.6,3.6-.2.8-.4,1.5-.7,2.1-.6,1.4-1.4,2.4-2.4,3.3s-2.4,1.3-3.8,1.3-2.8-.4-3.7-1.3c-1-.8-1.5-1.9-1.7-3.3,0-.6-.2-1.3-.2-2,0-1.1,0-2.4.3-3.9.2-1.6.4-2.9.6-3.6.2-.8.4-1.5.7-2.1.5-1.4,1.3-2.4,2.5-3.3,1.2-.8,2.5-1.3,4-1.3s2.6.4,3.5,1.3c.9.8,1.4,1.9,1.6,3.2.2.7.3,1.4.3,2.2s0,1.8-.3,3.8h0Z"/>
            <path class="st2" d="M1037.1,212h-5.6c-.2,0-.4,0-.5.2,0,.1-.2.3-.3.5l-1.7,13.7c0,.1,0,.2,0,.2h-.3c-1.5-2.1-3.7-3.2-6.5-3.2s-5.7.8-7.9,2.3c-2.2,1.6-3.9,3.7-5.2,6.5-1,2.2-1.6,4.8-2,7.7-.2,1.1-.3,2.4-.3,3.7s0,2.8.4,4.2c.5,2.8,1.7,5,3.5,6.5,1.8,1.6,4.2,2.3,7.1,2.3s5.4-1.1,7.5-3.3c0-.1.2-.2.3-.1s0,.1,0,.3l-.2,1.9c0,.2,0,.4,0,.5,0,.2.3.2.5.2h5.6c.2,0,.4,0,.5-.2s.2-.3.3-.5l5.3-42.8c0-.2,0-.4,0-.5s-.3-.2-.5-.2h0ZM1027.2,240.1c-.4,3.1-1.2,5.6-2.3,7.3-1.4,2-3.1,3-5.2,3s-3.9-1-4.9-3c-.5-1.2-.8-2.7-.8-4.6s0-1.8.2-2.7c.4-3.2,1.3-5.8,2.8-7.7,1.4-1.8,3.1-2.7,5.3-2.7s3.4.9,4.3,2.8c.6,1.1.8,2.7.8,4.6s0,1.9-.2,3h0Z"/>
            <path class="st2" d="M1058.7,223.5c-3.2,0-6,.9-8.5,2.6-2.5,1.7-4.3,4-5.5,7-.8,1.7-1.3,4-1.6,6.9-.2,1.2-.3,2.4-.3,3.7,0,1.9.2,3.5.6,4.9.7,2.7,2.1,4.7,4.1,6.2s4.6,2.2,7.8,2.2,5-.5,7.2-1.5,4.1-2.4,5.6-4.3c.2-.3.3-.4.3-.5s0-.3-.3-.5l-3.4-3.2c0-.1-.3-.2-.4-.2s-.4.1-.6.4c-1.9,2.4-4.3,3.5-7.1,3.5s-6-1.6-6.6-4.6c0-.5-.2-1-.2-1.6v-1.2c0-.2,0-.3.3-.3h19.2c.5,0,.8-.3.8-.8.3-2.2.5-4.1.5-5.7,0-8.6-4-12.9-12-12.9h0ZM1063.6,237c0,.2,0,.3-.3.3h-12.5c-.2,0-.3-.1-.2-.3.2-1.1.5-2,.8-2.8.6-1.4,1.4-2.5,2.5-3.3s2.4-1.2,4-1.2,3,.4,3.9,1.3c1,.8,1.6,2,1.8,3.5v2.4h0Z"/>
            <path class="st2" d="M1103.3,226c-1.7-1.7-4.1-2.5-7.1-2.5s-6.1,1.1-8,3.4c0,.1-.2.2-.3.1s0-.1,0-.3l.3-2c0-.5-.2-.8-.7-.8h-5.6c-.2,0-.4,0-.5.2,0,.1-.2.3-.3.5l-3.8,30.8c0,.2,0,.4,0,.5,0,.2.3.2.5.2h5.7c.2,0,.4,0,.5-.2,0-.1.2-.3.3-.5l2.4-19.3c.3-1.9,1-3.5,2.2-4.7s2.7-1.8,4.5-1.8,2.8.5,3.7,1.5,1.4,2.3,1.4,3.9,0,.9,0,1.1l-2.4,19.2c0,.2,0,.4,0,.5,0,.2.3.2.5.2h5.6c.2,0,.4,0,.6-.2.2-.1.3-.3.3-.5l2.5-20.8c0-.8,0-1.5,0-1.8,0-3-.9-5.3-2.6-7h0v.3Z"/>
          </g>
        </g>
        <path class="st4" d="M994.1,104.6l-4-5.8v-.7c0,0,1-1.4,1-1.4l.3-2h.5l1.9-3.3.4.4s0,0,.2,0c.6.4,1.3.5,2,.5s1.3-.2,1.9-.5c1.2-.6,2.3-1.8,2.9-3.4,1.2-3.2.2-7-2.2-8.4-.4-.2-.8-.3-1.2-.4l2.2-2.7-1.1-1.3-3.5,4.2c0,0-.2,0-.3,0-1.2.6-2.3,1.8-2.9,3.4-.9,2.3-.6,4.8.5,6.6l.2.2c-.5.9-1.5,2.5-2.3,3.3-.8.7-1.2,1.7-3.6,2-2.3-.3-2.8-1.3-3.6-2-.9-.8-1.8-2.4-2.3-3.3l.2-.2c1.1-1.8,1.4-4.3.5-6.6,0-.2-.2-.5-.3-.7l1.2-1.5-1.7-2.1-1.2,1.4c-.3-.2-.6-.4-.9-.6-1.3-.6-2.6-.6-3.9,0-2.5,1.4-3.5,5.2-2.2,8.4.6,1.5,1.6,2.7,2.9,3.4.6.3,1.3.5,1.9.5s1.3-.2,2-.5c0,0,0,0,.2,0l.4-.4,1.9,3.2h.5l.3,2.1,1.2,1.4v.7c0,0-4.1,5.8-4.1,5.8l-7.2,13.7v1.3c0,0,14.3-18.4,14.3-18.4l14.4,18.4v-1.3c0,0-7.3-13.7-7.3-13.7h0v.2ZM993.4,84.3c.5-1.2,1.2-2.1,2.2-2.6.4-.2.9-.3,1.4-.3s.9,0,1.4.4c1.8,1,2.5,3.8,1.5,6.2s-1.2,2.1-2.2,2.6c-.9.5-1.9.4-2.7,0-1.8-1-2.5-3.8-1.5-6.2h-.1ZM979,90.4c-.8.5-1.8.5-2.7,0s-1.7-1.4-2.2-2.6c-.9-2.4-.2-5.2,1.5-6.2.4-.2.9-.4,1.4-.4s.9,0,1.4.3c.9.5,1.7,1.4,2.2,2.6.9,2.4.2,5.2-1.5,6.2h-.1ZM987,99.2c-.5,0-.8-.4-.8-1s.4-1,.8-1,.8.4.8,1-.4,1-.8,1Z"/>
      </g>
    </g>
  </g>
</svg>