<?xml version="1.0" encoding="UTF-8"?>
<svg id="base" xmlns="http://www.w3.org/2000/svg" xmlns:xlink="http://www.w3.org/1999/xlink" viewBox="0 0 500 251.59">
  <defs>
    <style>
      .cls-1 {
        fill: none;
      }

      .cls-2 {
        fill: #937218;
      }

      .cls-3 {
        clip-path: url(#clippath);
      }

      .cls-4 {
        fill: #f1f1f1;
      }
    </style>
    <clipPath id="clippath">
      <rect id="background_house_HOME-2" data-name="background_house_HOME" class="cls-1" y="0" width="500" height="252.59"/>
    </clipPath>
  </defs>
  <g id="background_house_HOME">
    <g class="cls-3">
      <path id="background_image" data-name="background image" class="cls-4" d="M494.48,91.92L323.94,19.41c-5.37-2.28-11.03,2.5-11.03,9.34v118.69h-93.91V9.92c0-6.84-5.66-11.62-11.03-9.34h-.07L5.52,86.63c-3.31,1.4-5.52,5.15-5.52,9.34v6404.04h500V101.26c0-4.19-2.21-7.94-5.52-9.34Z"/>
    </g>
  </g>
  <g id="_.title" data-name=" .title">
    <path class="cls-2" d="M274.78,109.87l-4.98-7.31-.18-.84,1.49-1.75.42-2.48.66-.12,2.35-3.96.46.47c.08.05.14.12.22.16.78.44,1.61.66,2.46.66.79,0,1.59-.2,2.37-.58,1.56-.79,2.83-2.29,3.57-4.22,1.54-4.03.29-8.72-2.8-10.46-.47-.26-.96-.42-1.45-.53l2.75-3.34-1.36-1.66-4.37,5.3c-.13.05-.26.08-.39.14-1.56.79-2.83,2.29-3.57,4.22-1.09,2.86-.76,6.03.62,8.27l.28.29c-.62,1.12-1.84,3.16-2.93,4.17-.99.91-1.5,2.12-4.44,2.53-2.93-.41-3.45-1.62-4.44-2.53-1.09-1.01-2.31-3.05-2.93-4.17l.28-.29c1.38-2.24,1.71-5.41.62-8.27-.12-.3-.27-.57-.41-.85l1.55-1.88-2.13-2.58-1.49,1.81c-.35-.28-.71-.51-1.1-.71-1.6-.8-3.31-.77-4.82.08-3.08,1.74-4.34,6.44-2.8,10.46.74,1.93,2.01,3.43,3.57,4.22.77.39,1.57.58,2.37.58.84,0,1.68-.22,2.46-.66.08-.04.14-.11.22-.16l.46-.48,2.35,3.96.66.12.42,2.48,1.49,1.75-.18.84-4.98,7.31-8.99,17.1-.15,1.65,17.98-22.94,17.98,22.94-.15-1.65-8.99-17.1h-.03ZM273.98,84.47c.57-1.48,1.52-2.61,2.7-3.21.56-.28,1.13-.42,1.69-.42s1.17.15,1.7.46c2.21,1.25,3.08,4.71,1.93,7.71-.57,1.48-1.52,2.61-2.7,3.21-1.13.57-2.34.56-3.4-.03-2.21-1.25-3.08-4.71-1.93-7.71h0ZM255.96,92.17c-1.05.59-2.26.61-3.4.03-1.18-.59-2.13-1.73-2.7-3.21-1.15-3-.28-6.46,1.93-7.71.54-.3,1.11-.46,1.7-.46s1.14.14,1.69.42c1.18.59,2.13,1.73,2.7,3.21,1.15,3,.28,6.46-1.93,7.71h0ZM265.94,103.2c-.58,0-1.06-.54-1.06-1.21s.47-1.21,1.06-1.21,1.06.54,1.06,1.21-.47,1.21-1.06,1.21Z"/>
  </g>
</svg>