<?xml version="1.0" encoding="UTF-8"?>
<svg id="footer" xmlns="http://www.w3.org/2000/svg" viewBox="0 0 130.36 31.59">
  <defs>
    <style>
      .cls-1 {
        fill: #a98e46;
      }
    </style>
  </defs>
  <path class="cls-1" d="M9.25.11c-1.68.08-2.83.35-3.83.74-1.04.4-1.92.95-2.79,1.83-.88.88-1.42,1.76-1.82,2.8-.39,1.01-.65,2.15-.73,3.84C.01,11,0,11.54,0,15.83c0,4.29.03,4.83.11,6.51.08,1.68.35,2.83.74,3.83.41,1.04.95,1.92,1.83,2.79.88.88,1.76,1.41,2.8,1.82,1,.39,2.15.65,3.83.73,1.68.07,2.22.09,6.51.08,4.29,0,4.83-.03,6.51-.11,1.68-.08,2.83-.35,3.83-.74,1.04-.41,1.92-.95,2.79-1.83.88-.88,1.41-1.76,1.82-2.8.39-1,.65-2.15.73-3.83.07-1.69.09-2.22.08-6.51,0-4.29-.03-4.83-.11-6.51-.08-1.68-.35-2.83-.74-3.83-.41-1.04-.95-1.92-1.83-2.79-.88-.88-1.76-1.42-2.8-1.82-1.01-.39-2.15-.65-3.83-.73C20.59.01,20.05,0,15.76,0c-4.29,0-4.83.03-6.51.11M9.44,28.66c-1.54-.07-2.38-.32-2.93-.54-.74-.29-1.26-.63-1.82-1.18-.55-.55-.9-1.08-1.18-1.81-.22-.56-.48-1.39-.55-2.93-.08-1.66-.1-2.16-.1-6.38,0-4.22,0-4.72.08-6.38.07-1.54.32-2.38.54-2.93.29-.74.63-1.26,1.18-1.82.55-.55,1.08-.9,1.81-1.18.56-.22,1.39-.48,2.93-.55,1.67-.08,2.16-.1,6.38-.1,4.22,0,4.72,0,6.38.08,1.54.07,2.38.32,2.93.54.74.29,1.27.63,1.82,1.18.55.55.9,1.08,1.19,1.81.22.56.48,1.39.55,2.93.08,1.67.1,2.17.1,6.38,0,4.22,0,4.72-.08,6.38-.07,1.54-.32,2.38-.54,2.93-.29.74-.63,1.26-1.18,1.82-.55.55-1.08.9-1.81,1.18-.56.22-1.39.48-2.93.55-1.67.08-2.16.1-6.38.1-4.22,0-4.72,0-6.38-.08M22.31,7.35c0,1.05.85,1.89,1.9,1.89,1.05,0,1.89-.85,1.89-1.9,0-1.05-.85-1.89-1.9-1.89s-1.89.85-1.89,1.9M7.68,15.81c0,4.48,3.65,8.1,8.13,8.09,4.48,0,8.1-3.65,8.1-8.13,0-4.48-3.65-8.1-8.13-8.09-4.48,0-8.1,3.65-8.09,8.13M10.53,15.8c0-2.91,2.35-5.27,5.25-5.27,2.91,0,5.27,2.35,5.28,5.25,0,2.91-2.35,5.27-5.26,5.27-2.91,0-5.27-2.35-5.27-5.25"/>
  <g>
    <path class="cls-1" d="M118.44,16.96l1.28-3.55c.35-.72.54-1.01,1.42-.82.59.13,1.29.5,1.39,1.15.16,1.02-.02,2.25.11,3.29.09.48.05.98.14,1.46.01.08-.03.08.09.07.23-1.64.71-3.33,1.33-4.86.36-.88.51-1.37,1.6-1.06.53.15,1.46.54,1.54,1.15.1.72-.1,1.74-.09,2.49.09,1.29-.26,4.47.71,5.42.64.63,1.15-.24,1.34-.79.12-.34.27-1.47.6-1.57.73-.22.4,1.35.32,1.69-.33,1.39-1.16,2.66-2.79,2.2-1.71-.48-2.04-2.61-2.15-4.12l-.02-3.98c-.09,0-.11.08-.14.14-.94,1.83-1.45,4.44-1.58,6.48,0,.09.05.16.03.27-.06.59-1.12.53-1.52.36-.94-.4-1.06-2.28-1.16-3.18-.14-1.26-.09-2.59-.23-3.82-.02-.21-.12-.19-.23-.04-.62.81-1.28,3.25-1.41,4.29s-.04,2.11-.15,3.1c-.06.52-.35.56-.82.59-.42.03-1.22-.04-1.55-.34-.25-.23-.13-1.02-.24-1.36-.44,1.15-1.3,1.96-2.61,1.62-.99-.26-1.61-1.11-1.78-2.09-.71,1.51-2.49,2.67-4.16,1.94-.64-.28-1.04-.81-1.41-1.37-.73,1.35-1.92,2.08-3.39,1.21-1.89-1.12-1.79-4.05-1.54-5.94.08-.56.3-1.21.34-1.73,0-.06,0-.12-.02-.18l-1.74.05c-.84,2.61-2.28,5.02-4.04,7.11-.03.51-.03,1.03-.02,1.54.04,2.21.17,5.35-1.89,6.78s-5.01.28-4.71-2.44c.22-1.95,3.27-4.04,4.54-5.4l-.02-1.04-.61.73c-1.52,1.41-3.77,1.2-4.67-.75l-.1-.03c-.5,1.29-1.79,2.1-3.15,1.47-.74-.34-1.21-1.1-1.31-1.89-.56.92-1.25,1.72-2.33,2-1.97.52-3.24-.88-3.65-2.66-.16.25-.24.54-.38.8-.48.91-1.4,2.06-2.55,1.98-1.9-.14-2.42-2.42-2.59-3.96-.66,1.45-1.56,2.94-3.09,3.6-1.21.53-2.87.5-4.09-.01-.86-.37-.98-.77-.47-1.57.63-.99.93-.48,1.62-.05s1.53.64,1.94-.26c.75-1.62-1.12-3.07-2.19-3.98-.97,1.45-1.73,3.15-2.79,4.52-1.42,1.84-3.56,2.82-3.97-.35-.26-1.97.02-4.17.09-6.16,0-.18.02-.49,0-.66s-.22-.01-.28.05c-.67.64-1.39,2.04-1.77,2.9-.79,1.82-1.27,3.81-1.58,5.76-.59.3-1.61.29-1.93-.37-.38-.79-.25-3.26-.24-4.24,0-.13.05-.25.05-.37,0-1.62-.15-3.62,0-5.19.02-.19.05-.39.27-.44.34-.08,1.67.23,1.78.6v5c.53-1.26.87-2.6,1.59-3.78.96-1.58,2.21-2.51,3.9-1.14.45.36.49.72.48,1.27-.04,1.82-.26,3.68-.14,5.51.13,1.99.88,1.1,1.58.07.79-1.18,1.44-2.52,2.13-3.77v-.09c-1.47-1.51.08-4.09,2.06-3.86,1.79.21.37,2.61-.3,3.32,1.28,1.15,3.48,2.08,3.58,4.05.01.27-.07.52-.03.78.43-.41.81-.88,1.1-1.4.61-1.1.64-1.82.67-3.05.04-1.33-.03-2.66,0-3.98l-2.52-.1c-.39-.26,0-1.58.33-1.68l2.33.08c.01-.37-.01-.74,0-1.11.02-.54.03-1.25.1-1.78s.29-.54.77-.49c.31.03,1.54.33,1.66.61l-.07,2.87c.92.1,1.89.04,2.8.15.09.01.3.04.36.06.34.16.02,1.3-.27,1.38-.22.06-.8,0-1.08,0-.11,0-.21.05-.33.05-.51.01-1.02-.01-1.53,0-.04.54-.02,1.09-.04,1.63-.07,1.97-.34,4.57-.04,6.49.08.49.31,1.56.98,1.43.9-.17,1.8-2.11,1.88-2.93.2-1.97.12-3.63,1.47-5.27,1.21-1.47,3.23-1.54,4.29.12l.08-.55c.22-.54,1.4-.24,1.81-.04.23.12.35.2.38.47.09.95-.1,2.1-.1,3.06.08,1.42-.15,3.02.17,4.4s1.31,1.43,1.91.18c.42-.87.17-1.16.13-2.03-.09-1.83.34-4.44,1.63-5.82s3.17-1.17,4.15.33c.05-.29-.05-.56.24-.75.36-.24,1.39,0,1.75.23.45.29.21,1.08.2,1.54-.03,1.99-.02,3.98-.04,5.96.11.03.08-.02.11-.06.37-.47.76-1.15,1.05-1.68.62-1.14,1.12-2.38,1.43-3.65-.1-.15-.26-.25-.37-.38-.88-1.12.21-3.09,1.69-2.63.77.24.72,1,.58,1.66.9-.07,2-.54,2.9-.42.55.07.89.57.88,1.1-.01.82-.5,2.15-.61,3.07-.13,1.08-.18,2.82.33,3.8.55,1.04,1.46.68,1.85-.25.34-.78.07-1.09.02-1.86-.11-1.85.16-4.07,1.28-5.6,1.22-1.65,3.19-1.81,4.45-.13.03-.33,0-.73.43-.8s1.84.15,1.85.73c0,.5-.03,1.05-.04,1.56-.04,1.81-.31,4.15.07,5.91.25,1.15.99,1.5,1.72.45.97-1.38.78-3.41.8-5.04.02-1.02-.09-2.21,0-3.21.03-.35.1-.58.5-.59.21,0,1.35.25,1.5.38.04.04.18.27.18.31v3.75ZM81.74,14.1c-.57.1-.99.78-1.19,1.26-.57,1.39-.8,5.02.26,6.2.37.42.84.47,1.32.18,1.57-.94,1.78-5.23,1.13-6.73-.29-.67-.74-1.04-1.51-.91ZM92.02,14.1c-1.72.28-1.92,4.12-1.77,5.42.11.97.61,3.06,2.02,2.22,1.54-.92,1.78-5.36,1.14-6.84-.27-.62-.7-.91-1.39-.8ZM109.61,14.1c-1.57.26-1.71,3.86-1.64,5.05.06.97.49,3.45,1.99,2.61,1.58-.89,1.73-4.84,1.29-6.36-.24-.83-.68-1.46-1.65-1.3ZM93.97,24.31c-1.11,1.08-2.88,2.75-3.05,4.37-.18,1.72,1.81,1.98,2.49.51s.52-3.35.56-4.88Z"/>
    <path class="cls-1" d="M49.58,6.98c.56-.09,1.31.08,1.77.42.19.14.34.29.36.54-.02,3.84.07,7.7-.04,11.54-.05,1.86,0,3.94-1.58,5.25-.27.22-1.39,1-1.34.21.03-.42.33-1.12.41-1.62.27-1.6.19-3.57.21-5.21.04-3.2-.02-6.4,0-9.61-.07-.21-.41.13-.48.21-1.45,1.41-2.29,4.61-1.57,6.51.12.33.54.85.58,1.12.15.92-1.46-.11-1.73-.35-2.53-2.29-.29-6.42,1.86-8.13.34-.27,1.16-.82,1.57-.89Z"/>
  </g>
</svg>