<?xml version="1.0" encoding="UTF-8"?>
<svg id="footer" xmlns="http://www.w3.org/2000/svg" viewBox="0 0 76.13 72.54">
  <defs>
    <style>
      .cls-1 {
        fill: #a98e46;
      }
    </style>
  </defs>
  <path class="cls-1" d="M76.44,30.89C76.44,13.86,59.37,0,38.38,0S.31,13.86.31,30.89c0,15.27,13.54,28.06,31.83,30.48,1.24.27,2.93.82,3.35,1.88.38.96.25,2.47.12,3.44,0,0-.45,2.69-.54,3.26-.17.96-.77,3.76,3.3,2.05,4.06-1.71,21.92-12.91,29.91-22.1h0c5.52-6.05,8.16-12.19,8.16-19.01ZM24.95,40c0,.4-.33.73-.73.73h-10.69c-.4,0-.73-.33-.73-.73h0v-16.61c0-.4.33-.73.73-.73h2.7c.4,0,.73.33.73.73v13.19h7.27c.4,0,.73.33.73.73v2.7ZM31.39,40c0,.4-.33.73-.73.73h-2.7c-.4,0-.73-.33-.73-.73v-16.61c0-.4.33-.73.73-.73h2.7c.4,0,.73.33.73.73v16.61ZM49.76,40c0,.4-.33.73-.73.73h-2.68c-.07,0-.13,0-.19-.03,0,0,0,0-.01,0-.02,0-.03-.01-.05-.02,0,0-.02,0-.02,0-.01,0-.02-.01-.04-.02-.01,0-.02-.01-.04-.02,0,0-.01,0-.02-.01-.02,0-.03-.02-.05-.03,0,0,0,0,0,0-.07-.05-.13-.11-.19-.18l-7.61-10.28v9.86c0,.4-.33.73-.73.73h-2.7c-.4,0-.73-.33-.73-.73v-16.61c0-.4.33-.73.73-.73h2.68s.02,0,.02,0c.01,0,.03,0,.04,0s.03,0,.04,0c.01,0,.02,0,.03,0,.01,0,.03,0,.04,0,0,0,.02,0,.03,0,.01,0,.03,0,.04.01,0,0,.02,0,.02,0,.01,0,.03.01.04.02,0,0,.02,0,.02.01.01,0,.03.01.04.02,0,0,.01,0,.02.01.01,0,.03.02.04.03,0,0,.01,0,.02.01.01.01.03.02.04.03,0,0,0,0,.01.01.02.01.03.03.04.05,0,0,0,0,0,0,.02.02.04.05.06.08l7.6,10.26v-9.87c0-.4.33-.73.73-.73h2.7c.4,0,.73.33.73.73v16.61ZM64.51,26.09c0,.4-.33.73-.73.73h-7.27v2.8h7.27c.4,0,.73.33.73.73v2.7c0,.4-.33.73-.73.73h-7.27v2.8h7.27c.4,0,.73.33.73.73v2.7c0,.4-.33.73-.73.73h-10.69c-.4,0-.73-.33-.73-.73h0v-16.6h0v-.02c0-.4.33-.73.73-.73h10.69c.4,0,.73.33.73.73v2.7Z"/>
</svg>