<?xml version="1.0" encoding="UTF-8"?>
<svg id="footer" xmlns="http://www.w3.org/2000/svg" version="1.1" viewBox="0 0 72.6 49.3">
  <!-- Generator: Adobe Illustrator 29.8.6, SVG Export Plug-In . SVG Version: 2.1.1 Build 1)  -->
  <defs>
    <style>
      .st0 {
        fill: #a98e46;
      }
    </style>
  </defs>
  <path class="st0" d="M67.9.6c-.9-.4-1.9-.6-2.9-.6H7.5c-1,0-2,.2-2.8.6l32,26.3L67.9.6Z"/>
  <path class="st0" d="M38.2,32c-.5.3-1,.5-1.5.5s-1.1-.2-1.5-.5L.9,4c-.6,1.1-.9,2.3-.9,3.6v34.2c0,4.2,3.4,7.5,7.5,7.5h57.5c4.2,0,7.5-3.4,7.5-7.5V7.5c0-1.3-.3-2.5-.9-3.6l-33.5,28h.1Z"/>
</svg>