<?xml version="1.0" encoding="UTF-8"?>
<svg id="footer" xmlns="http://www.w3.org/2000/svg" viewBox="0 0 126.71 186.16">
  <defs>
    <style>
      .cls-1 {
        fill: #a98e46;
      }
    </style>
  </defs>
  <path class="cls-1" d="M109.59,17.98L76.24,3.8c-1.05-.45-2.16.49-2.16,1.83v32.91h-18.37V1.94c0-1.34-1.11-2.27-2.16-1.83L13.97,16.94c-.65.27-1.08,1.01-1.08,1.83v60.28c0,1.07.72,1.94,1.62,1.94h94.54c.89,0,1.62-.87,1.62-1.94V19.81c0-.82-.43-1.55-1.08-1.83ZM43.59,63.72c0,2.15-1.74,3.89-3.89,3.89h-11.53c-2.15,0-3.89-1.74-3.89-3.89v-3.46c0-2.15,1.74-3.89,3.89-3.89h11.53c2.15,0,3.89,1.74,3.89,3.89v3.46ZM43.59,34.64c0,2.15-1.74,3.89-3.89,3.89h-11.53c-2.15,0-3.89-1.74-3.89-3.89v-3.46c0-2.15,1.74-3.89,3.89-3.89h11.53c2.15,0,3.89,1.74,3.89,3.89v3.46ZM97.24,63.27c0,2.4-1.94,4.34-4.34,4.34h-1.79c-2.4,0-4.34-1.94-4.34-4.34v-6.05c0-2.4,1.94-4.34,4.34-4.34h1.79c2.4,0,4.34,1.94,4.34,4.34v6.05Z"/>
  <path class="cls-1" d="M16.17,174.94c0,.39-.05,1.07-.14,2.04-.21,1.63-.6,3.07-1.17,4.31-.69,1.52-1.63,2.7-2.81,3.56-1.19.85-2.57,1.28-4.16,1.28-.81,0-1.51-.16-2.12-.48-.61-.32-1.11-.77-1.5-1.35-.05-.07-.09-.09-.14-.07-.05.02-.07.07-.07.14l-.14,1.07c-.02.12-.08.21-.16.29s-.18.12-.29.12H.35c-.12,0-.21-.04-.28-.12-.07-.08-.09-.18-.07-.29l2.87-23.33c.02-.11.07-.21.16-.29.08-.08.18-.12.29-.12h3.11c.11,0,.21.04.28.12s.09.18.07.29l-.93,7.49c0,.16.07.2.21.1,1.06-1.17,2.39-1.76,4-1.76s2.95.43,3.95,1.28c1,.85,1.65,2.04,1.95,3.56.14.69.21,1.42.21,2.17ZM12.02,177.05c.07-.53.1-1.01.1-1.45,0-1.13-.19-2.05-.59-2.76-.48-.97-1.31-1.45-2.48-1.45-1.08,0-1.99.51-2.73,1.52-.67.99-1.11,2.36-1.31,4.11-.09.87-.14,1.46-.14,1.76,0,.9.14,1.65.41,2.24.44,1.1,1.23,1.66,2.38,1.66,1.29,0,2.31-.55,3.07-1.66.64-.94,1.07-2.27,1.28-3.97ZM31.73,168.45c.14.09.18.26.14.52l-.97,3.11c-.07.28-.23.36-.48.24-.35-.11-.74-.17-1.17-.17-.28,0-.5.01-.66.03-.94.05-1.77.39-2.47,1.02-.7.63-1.12,1.46-1.26,2.47l-1.18,9.77c-.02.12-.07.21-.16.29s-.18.12-.29.12h-3.11c-.12,0-.21-.04-.28-.12-.07-.08-.09-.18-.07-.29l2.08-16.81c.02-.12.07-.21.16-.29.08-.08.18-.12.29-.12h3.07c.25,0,.38.14.38.41l-.21,1.55c-.02.09-.01.14.03.16.05.01.09-.02.14-.09,1.08-1.5,2.47-2.24,4.18-2.24.71,0,1.32.15,1.83.45ZM35.69,184.75c-1.15-.92-1.89-2.2-2.21-3.83-.12-.69-.17-1.4-.17-2.14,0-.62.03-1.22.1-1.8.18-1.45.52-2.76,1-3.94.74-1.61,1.79-2.87,3.16-3.76,1.37-.9,2.95-1.35,4.75-1.35,1.7,0,3.12.45,4.25,1.35,1.13.9,1.85,2.14,2.17,3.73.14.64.21,1.38.21,2.21,0,.55-.03,1.13-.1,1.73-.16,1.4-.51,2.72-1.04,3.93-.71,1.63-1.76,2.92-3.13,3.85-1.37.93-2.92,1.4-4.64,1.4s-3.2-.46-4.35-1.38ZM42.68,181.95c.66-.48,1.17-1.16,1.54-2.04.35-.81.58-1.77.69-2.9.09-.87.14-1.47.14-1.8,0-.44-.03-.81-.1-1.1-.14-.87-.48-1.55-1.03-2.02-.55-.47-1.25-.71-2.11-.71s-1.57.24-2.23.71c-.66.47-1.18,1.14-1.57,2.02-.32.87-.55,1.84-.69,2.9-.07.58-.1,1.14-.1,1.69,0,.35.02.75.07,1.21.16.87.52,1.55,1.07,2.04.55.48,1.26.72,2.14.72.81,0,1.54-.24,2.19-.72ZM65.31,168.33c.09-.08.2-.12.31-.12h3.07c.12,0,.21.04.28.12.07.08.09.18.07.29l-2.08,16.81c-.02.12-.07.21-.16.29s-.18.12-.29.12h-3.07c-.12,0-.21-.04-.28-.12-.07-.08-.09-.18-.07-.29l.17-1.62c.02-.09.01-.14-.03-.16-.05-.01-.09.02-.14.09-1.11,1.59-2.65,2.38-4.63,2.38-1.5,0-2.74-.45-3.74-1.36-1-.91-1.6-2.13-1.81-3.68-.07-.41-.1-.85-.1-1.31,0-.64.08-1.56.24-2.76.23-1.86.58-3.34,1.04-4.42.6-1.38,1.5-2.5,2.69-3.37,1.2-.86,2.57-1.29,4.11-1.29,1.89,0,3.18.74,3.87,2.21.05.07.09.1.14.09.05-.01.07-.06.07-.16l.17-1.45c.02-.12.08-.21.17-.29ZM63.8,179.03c.1-.43.21-1.09.33-1.98.12-1.08.17-1.77.17-2.07,0-.39-.06-.78-.17-1.17-.07-.69-.35-1.27-.85-1.73-.5-.46-1.13-.69-1.92-.69-.83,0-1.56.23-2.19.69-.63.46-1.09,1.06-1.36,1.8-.16.35-.29.73-.4,1.16-.1.43-.21,1.09-.33,1.98-.12.81-.17,1.51-.17,2.11,0,.37.03.72.1,1.07.09.74.4,1.33.93,1.8.53.46,1.21.69,2.04.69s1.5-.23,2.09-.69c.59-.46,1.03-1.06,1.33-1.8.16-.35.29-.73.4-1.16ZM85.83,161.81c.08-.08.18-.12.29-.12h3.07c.11,0,.21.04.28.12.07.08.09.18.07.29l-2.87,23.33c-.02.12-.07.21-.16.29s-.18.12-.29.12h-3.07c-.12,0-.21-.04-.28-.12-.07-.08-.09-.18-.07-.29l.1-1.04c.02-.07.01-.11-.03-.14-.05-.02-.09,0-.14.07-1.13,1.2-2.49,1.8-4.07,1.8s-2.88-.43-3.87-1.28c-.99-.85-1.63-2.04-1.93-3.56-.14-.74-.21-1.5-.21-2.28,0-.74.05-1.42.14-2.04.18-1.61.54-3.01,1.07-4.21.67-1.52,1.61-2.7,2.81-3.56,1.21-.85,2.64-1.28,4.3-1.28,1.54,0,2.73.58,3.55,1.73.05.05.09.06.14.05.05-.01.07-.05.07-.12l.93-7.49c.02-.11.07-.21.16-.29ZM83.8,177.02c.07-.6.1-1.14.1-1.62,0-1.04-.15-1.86-.45-2.49-.48-1.01-1.27-1.52-2.35-1.52-1.15,0-2.11.48-2.87,1.45-.81,1.04-1.31,2.44-1.52,4.21-.07.51-.1,1-.1,1.48,0,.99.14,1.82.41,2.49.51,1.1,1.39,1.66,2.66,1.66,1.13,0,2.07-.55,2.83-1.66.64-.97,1.07-2.3,1.28-4ZM107.25,178.05c-.02.28-.17.41-.45.41h-10.46c-.12,0-.17.06-.17.17-.02.16-.03.38-.03.66,0,.35.03.64.1.9.37,1.66,1.58,2.5,3.62,2.52,1.52,0,2.81-.64,3.87-1.93.11-.14.23-.21.35-.21.09,0,.17.03.24.1l1.83,1.76c.12.12.17.21.17.28,0,.05-.05.14-.14.28-.81,1.01-1.82,1.8-3.04,2.35-1.22.55-2.53.83-3.93.83-1.75,0-3.18-.4-4.28-1.21-1.1-.81-1.85-1.93-2.24-3.38-.23-.76-.35-1.65-.34-2.66,0-.69.05-1.36.14-2,.16-1.56.45-2.82.86-3.76.64-1.61,1.64-2.88,2.99-3.81,1.35-.93,2.89-1.4,4.64-1.4,4.37,0,6.56,2.34,6.56,7.01,0,.85-.09,1.89-.28,3.11ZM98.4,172.03c-.59.43-1.04,1.02-1.36,1.78-.18.41-.33.92-.45,1.52-.05.12-.01.17.1.17h6.8c.11,0,.17-.06.17-.17.02-.18.04-.43.04-.72s-.01-.49-.03-.59c-.12-.83-.44-1.47-.97-1.93-.53-.46-1.24-.69-2.14-.69-.85,0-1.57.21-2.16.64ZM125.29,169.32c.94.92,1.41,2.19,1.41,3.8,0,.21-.02.54-.07,1l-1.38,11.32c-.02.12-.08.21-.17.29-.09.08-.2.12-.31.12h-3.07c-.12,0-.21-.04-.28-.12-.07-.08-.09-.18-.07-.29l1.28-10.49c.02-.14.03-.35.03-.62,0-.9-.25-1.61-.74-2.14-.49-.53-1.17-.79-2.02-.79-.94,0-1.75.32-2.43.97-.68.64-1.09,1.5-1.23,2.55l-1.28,10.53c-.02.12-.07.21-.16.29s-.18.12-.29.12h-3.11c-.12,0-.21-.04-.28-.12-.07-.08-.09-.18-.07-.29l2.08-16.81c.02-.12.07-.21.16-.29.08-.08.18-.12.29-.12h3.07c.25,0,.38.14.38.41l-.14,1.1c-.02.07-.01.12.03.14.05.02.09,0,.14-.07,1.04-1.24,2.49-1.86,4.35-1.86,1.63,0,2.92.46,3.87,1.38ZM31.09,152.9c-.83-.35-1.48-.81-1.93-1.38-.45-.58-.68-1.22-.68-1.93v-.35c0-.19.1-.29.29-.29h1.38c.19,0,.29.1.29.29v.23c0,.63.33,1.18.99,1.65.66.47,1.49.7,2.49.7s1.8-.23,2.42-.68c.61-.45.92-1.02.92-1.71,0-.48-.16-.87-.47-1.18-.32-.31-.69-.55-1.12-.72-.43-.17-1.1-.39-2-.66-1.07-.31-1.96-.61-2.65-.92-.69-.31-1.27-.73-1.74-1.28-.47-.55-.7-1.24-.7-2.09,0-1.23.48-2.21,1.44-2.93.96-.73,2.22-1.09,3.8-1.09,1.05,0,1.99.17,2.8.52s1.44.82,1.88,1.42c.44.6.66,1.28.66,2.03v.09c0,.19-.1.29-.29.29h-1.35c-.19,0-.29-.1-.29-.29v-.09c0-.65-.31-1.2-.93-1.64-.62-.44-1.46-.66-2.52-.66-.98,0-1.76.2-2.36.59-.59.39-.89.93-.89,1.63,0,.65.29,1.15.86,1.5.58.35,1.47.69,2.68,1.04,1.11.33,2.01.63,2.7.92.69.29,1.28.7,1.78,1.25s.75,1.26.75,2.14c0,1.25-.49,2.24-1.47,2.99s-2.27,1.12-3.88,1.12c-1.07,0-2.03-.17-2.86-.52ZM53.21,139.81c.94.88,1.41,2.05,1.41,3.51v9.66c0,.19-.1.29-.29.29h-1.47c-.19,0-.29-.1-.29-.29v-1.18s-.01-.07-.04-.09c-.03-.02-.06,0-.1.03-.48.58-1.1,1.01-1.87,1.31s-1.62.45-2.56.45c-1.36,0-2.5-.35-3.42-1.04-.92-.69-1.38-1.74-1.38-3.16s.52-2.57,1.57-3.41c1.05-.83,2.5-1.25,4.36-1.25h3.34c.08,0,.12-.04.12-.12v-1.09c0-.98-.27-1.75-.82-2.32-.55-.57-1.4-.85-2.55-.85-.92,0-1.67.18-2.24.53-.58.36-.93.85-1.06,1.48-.06.19-.17.28-.35.26l-1.55-.2c-.21-.04-.3-.12-.26-.23.15-1.07.73-1.95,1.73-2.62,1-.67,2.24-1.01,3.74-1.01,1.73,0,3.06.44,4,1.32ZM51.34,150.9c.82-.57,1.24-1.33,1.24-2.29v-2.24c0-.08-.04-.12-.12-.12h-3.02c-1.27,0-2.28.26-3.05.78-.77.52-1.15,1.24-1.15,2.16,0,.84.29,1.48.88,1.91.58.43,1.35.65,2.29.65,1.13,0,2.11-.28,2.93-.85ZM59.77,152.98v-19.56c0-.19.1-.29.29-.29h1.47c.19,0,.29.1.29.29v19.56c0,.19-.1.29-.29.29h-1.47c-.19,0-.29-.1-.29-.29ZM69.12,152.44c-1-.71-1.69-1.69-2.07-2.93-.27-.88-.4-2.06-.4-3.54s.13-2.65.4-3.51c.36-1.23,1.05-2.2,2.04-2.91,1-.71,2.2-1.06,3.62-1.06s2.54.36,3.52,1.06c.99.71,1.66,1.67,2.03,2.88.27.82.4,2,.4,3.54s-.13,2.73-.4,3.54c-.36,1.25-1.04,2.22-2.03,2.93-.99.71-2.17,1.06-3.55,1.06s-2.57-.35-3.57-1.06ZM75.04,150.95c.65-.51,1.09-1.19,1.32-2.06.17-.69.26-1.66.26-2.91s-.08-2.23-.23-2.91c-.23-.86-.68-1.55-1.34-2.06-.66-.51-1.46-.76-2.4-.76s-1.74.25-2.39.76c-.65.51-1.09,1.19-1.32,2.06-.15.67-.23,1.64-.23,2.91s.08,2.23.23,2.91c.21.86.65,1.55,1.31,2.06.66.51,1.47.76,2.43.76s1.71-.25,2.36-.76ZM93.19,139.87c.91.9,1.37,2.11,1.37,3.62v9.49c0,.19-.1.29-.29.29h-1.47c-.19,0-.29-.1-.29-.29v-9.09c0-1.05-.32-1.92-.96-2.59-.64-.67-1.47-1.01-2.49-1.01s-1.91.33-2.56.98-.98,1.51-.98,2.56v9.15c0,.19-.1.29-.29.29h-1.47c-.19,0-.29-.1-.29-.29v-13.98c0-.19.1-.29.29-.29h1.47c.19,0,.29.1.29.29v1.24s.01.07.04.09c.03.02.05,0,.07-.03.84-1.19,2.14-1.78,3.88-1.78,1.53,0,2.76.45,3.67,1.35ZM66.96,112.96l-2.92-4.29-.11-.49.87-1.03.25-1.45.39-.07,1.38-2.32.27.28s.08.07.13.09c.46.26.95.39,1.44.39.46,0,.93-.11,1.39-.34.92-.46,1.66-1.34,2.09-2.47.9-2.36.17-5.11-1.64-6.14-.27-.15-.56-.25-.85-.31l1.61-1.96-.8-.97-2.56,3.11c-.08.03-.15.05-.23.08-.92.46-1.66,1.34-2.09,2.47-.64,1.68-.44,3.54.36,4.85l.17.17c-.37.66-1.08,1.85-1.72,2.45-.58.54-.88,1.24-2.6,1.48-1.72-.24-2.02-.95-2.6-1.48-.64-.59-1.35-1.79-1.72-2.45l.17-.17c.81-1.31,1-3.17.36-4.85-.07-.18-.16-.34-.24-.5l.91-1.1-1.25-1.52-.87,1.06c-.2-.16-.42-.3-.64-.42-.94-.47-1.94-.45-2.83.05-1.81,1.02-2.54,3.78-1.64,6.14.43,1.13,1.18,2.01,2.09,2.47.45.23.92.34,1.39.34.49,0,.98-.13,1.44-.39.05-.03.08-.07.13-.09l.27-.28,1.38,2.32.39.07.25,1.45.87,1.03-.11.49-2.92,4.29-5.27,10.03-.09.97,10.54-13.45,10.54,13.45-.09-.97-5.27-10.03ZM66.5,98.07c.33-.86.89-1.53,1.58-1.88.33-.17.66-.25.99-.25s.68.09,1,.27c1.3.73,1.81,2.76,1.13,4.52-.33.87-.89,1.53-1.58,1.88-.66.34-1.37.33-1.99-.02-1.3-.73-1.8-2.76-1.13-4.52ZM55.93,102.59c-.62.35-1.33.36-1.99.02-.69-.35-1.25-1.01-1.58-1.88-.67-1.76-.16-3.79,1.13-4.52.31-.18.65-.27,1-.27s.67.08.99.25c.69.35,1.25,1.01,1.58,1.88.67,1.76.17,3.79-1.13,4.52ZM61.78,109.06c-.34,0-.62-.32-.62-.71s.28-.71.62-.71.62.32.62.71-.28.71-.62.71Z"/>
</svg>